<svg width="642" height="136" viewBox="0 0 642 136" fill="none" xmlns="http://www.w3.org/2000/svg">
<g clip-path="url(#clip0_592_988)">
<path d="M168.448 92.501C168.313 92.7773 154.774 120.281 133.282 120.281C133.017 120.281 132.756 120.278 132.491 120.275C132.344 120.275 132.194 120.272 132.044 120.266C131.878 120.266 131.716 120.26 131.554 120.254C131.343 120.251 131.133 120.242 130.923 120.233C130.661 120.224 130.4 120.212 130.141 120.197C129.904 120.185 129.669 120.173 129.435 120.155C129.387 120.152 129.336 120.149 129.282 120.146C129.059 120.131 128.834 120.116 128.611 120.098C127.827 120.038 127.046 119.96 126.267 119.87C125.819 119.819 125.372 119.762 124.924 119.698C124.861 119.689 124.798 119.68 124.734 119.671C124.587 119.65 124.437 119.629 124.29 119.608C124.115 119.581 123.941 119.554 123.767 119.527C123.481 119.482 123.199 119.437 122.919 119.389C122.61 119.338 122.3 119.281 121.991 119.224C121.78 119.188 121.57 119.146 121.362 119.104C120.912 119.02 120.464 118.926 120.013 118.83C119.821 118.788 119.631 118.746 119.439 118.704C119.15 118.641 118.862 118.575 118.573 118.503C118.117 118.398 117.657 118.283 117.2 118.166C115.219 117.659 113.26 117.07 111.315 116.409C111.045 116.319 110.774 116.226 110.504 116.129C110.047 115.97 109.59 115.808 109.133 115.64C108.655 115.462 108.178 115.285 107.7 115.099C107.222 114.916 106.741 114.726 106.266 114.534C105.803 114.351 105.343 114.162 104.884 113.969C104.869 113.96 104.851 113.954 104.836 113.948C104.394 113.762 103.952 113.576 103.513 113.384C103.441 113.353 103.369 113.32 103.297 113.29C102.936 113.134 102.575 112.975 102.218 112.813C100.189 111.905 98.1815 110.944 96.1859 109.935C95.7892 109.736 95.3924 109.535 94.9957 109.331C94.7493 109.205 94.5028 109.078 94.2564 108.949C94.2053 108.922 94.1512 108.895 94.0911 108.862C94.034 108.835 93.9769 108.805 93.9198 108.775C93.8176 108.721 93.7124 108.667 93.6102 108.613C93.1985 108.399 92.7897 108.18 92.381 107.964C90.4906 106.957 88.6152 105.924 86.7488 104.875C86.7158 104.857 86.6857 104.839 86.6526 104.821C85.8442 104.365 85.0387 103.908 84.2333 103.448C83.6562 103.121 83.0822 102.791 82.5081 102.46C82.3699 102.382 82.2316 102.304 82.0964 102.223C81.9732 102.154 81.853 102.082 81.7297 102.012C81.7718 101.955 81.8169 101.901 81.859 101.844C82.1325 101.493 82.406 101.135 82.6734 100.778C82.8628 100.528 83.0491 100.279 83.2325 100.027C83.3346 99.8914 83.4338 99.7562 83.533 99.618C83.9898 98.9932 84.4406 98.3653 84.8824 97.7284C85.0147 97.5421 85.1469 97.3528 85.2761 97.1636C85.4655 96.8902 85.6548 96.6108 85.8442 96.3344C86.0305 96.058 86.2168 95.7786 86.4032 95.4992C87.0433 94.5378 87.6715 93.5645 88.2876 92.5821C88.2966 92.5671 88.3086 92.549 88.3207 92.531C88.6122 92.0623 88.9067 91.5877 89.1952 91.113C89.2073 91.092 89.2193 91.0709 89.2313 91.0529C89.5018 90.6113 89.7663 90.1667 90.0307 89.722C90.0788 89.6379 90.1269 89.5598 90.175 89.4787C90.4425 89.028 90.704 88.5774 90.9654 88.1238C90.9745 88.1087 90.9835 88.0937 90.9895 88.0787C91.257 87.619 91.5214 87.1534 91.7829 86.6907C91.81 86.6397 91.837 86.5916 91.8641 86.5465C92.1406 86.0508 92.4171 85.5581 92.6875 85.0594C92.9671 84.5487 93.2466 84.038 93.5201 83.5242C93.7395 83.1157 93.9558 82.7101 94.1692 82.3015C94.1722 82.2955 94.1752 82.2925 94.1782 82.2865C94.2323 82.1843 94.2834 82.0822 94.3375 81.9801C94.608 81.4633 94.8755 80.9466 95.14 80.4269C95.3804 79.9612 95.6178 79.4925 95.8523 79.0239C95.9004 78.9307 95.9454 78.8406 95.9935 78.7475V78.7445C96.264 78.2037 96.5345 77.6599 96.802 77.1132C97.0244 76.6565 97.2468 76.1999 97.4692 75.7432C97.7216 75.2205 97.9711 74.6977 98.2175 74.175C98.3468 73.9106 98.47 73.6433 98.5992 73.3789C98.7104 73.1385 98.8246 72.8952 98.9358 72.6489C99.0951 72.3064 99.2574 71.9579 99.4197 71.6064C99.5099 71.4171 99.597 71.2248 99.6842 71.0356C100.018 70.3085 100.348 69.5845 100.673 68.8575C100.784 68.6111 100.895 68.3618 101.01 68.1124C101.04 68.0403 101.073 67.9712 101.106 67.8991C101.124 67.8541 101.145 67.812 101.163 67.7699C101.187 67.7189 101.211 67.6648 101.232 67.6137C101.25 67.5777 101.265 67.5446 101.28 67.5086C101.295 67.4755 101.31 67.4455 101.325 67.4124C101.427 67.1811 101.53 66.9498 101.632 66.7185C101.758 66.433 101.884 66.1446 102.01 65.8592C102.251 65.3065 102.491 64.7597 102.732 64.2099C103.128 63.3026 103.519 62.4013 103.904 61.5031C103.925 61.5001 103.943 61.5001 103.964 61.4971C104.526 61.455 105.085 61.4069 105.641 61.3559C105.647 61.3559 105.656 61.3559 105.662 61.3529C106.146 61.3078 106.63 61.2627 107.111 61.2087C107.189 61.2026 107.27 61.1936 107.348 61.1846C107.823 61.1335 108.298 61.0795 108.77 61.0224C109.208 60.9713 109.647 60.9142 110.086 60.8541C110.218 60.8391 110.347 60.8211 110.48 60.8031C110.879 60.749 111.279 60.6919 111.676 60.6318C111.742 60.6228 111.808 60.6138 111.874 60.6018C112.367 60.5297 112.857 60.4516 113.344 60.3705C113.846 60.2893 114.345 60.2022 114.838 60.1121C115.333 60.022 115.823 59.9288 116.313 59.8327C116.8 59.7396 117.284 59.6404 117.765 59.5383C117.768 59.5353 117.768 59.5353 117.771 59.5353C118.056 59.4752 118.342 59.4121 118.624 59.349C118.91 59.2859 119.192 59.2228 119.472 59.1567C119.718 59.1027 119.962 59.0426 120.202 58.9855C120.821 58.8353 121.435 58.6821 122.042 58.5228C122.264 58.4658 122.483 58.4057 122.703 58.3456C123.409 58.1533 124.103 57.955 124.792 57.7508C125.074 57.6666 125.354 57.5795 125.633 57.4924C125.756 57.4533 125.877 57.4173 125.997 57.3782C126.33 57.2731 126.664 57.1649 126.995 57.0568C127.334 56.9426 127.671 56.8284 128.007 56.7113C128.113 56.6752 128.215 56.6392 128.32 56.6031C128.636 56.492 128.945 56.3808 129.255 56.2666C130.37 55.8581 131.455 55.4285 132.513 54.9778C132.864 54.8276 133.216 54.6744 133.561 54.5212C133.907 54.365 134.25 54.2087 134.589 54.0495C134.929 53.8903 135.263 53.7311 135.596 53.5658C135.921 53.4066 136.242 53.2444 136.561 53.0821C136.579 53.0731 136.594 53.0641 136.609 53.0581C136.906 52.9019 137.204 52.7457 137.496 52.5864C137.736 52.4603 137.973 52.3311 138.208 52.1959C138.376 52.1058 138.541 52.0096 138.707 51.9135C138.938 51.7843 139.167 51.6491 139.395 51.5139C139.494 51.4568 139.59 51.3968 139.69 51.3367C139.858 51.2345 140.026 51.1324 140.194 51.0272C140.279 50.9792 140.36 50.9251 140.444 50.874C140.699 50.7148 140.949 50.5526 141.198 50.3903C151.33 43.7539 157.022 34.5399 157.659 23.7396C157.987 18.2088 155.705 12.1882 151.555 7.63378C147.278 2.94113 141.397 0.2343 134.989 0.0149898C124.975 -0.327495 116.485 4.85785 109.028 15.8744C108.713 16.3431 108.397 16.8208 108.084 17.3045C107.931 17.5478 107.775 17.7942 107.622 18.0405C107.516 18.2057 107.414 18.371 107.312 18.5392C107.195 18.7285 107.078 18.9178 106.963 19.11C106.807 19.3654 106.654 19.6238 106.501 19.8821C106.389 20.0714 106.278 20.2607 106.167 20.4529C106.044 20.6632 105.92 20.8765 105.8 21.0928C105.65 21.3542 105.5 21.6186 105.352 21.883C104.757 22.9465 104.174 24.037 103.597 25.1516C103.453 25.431 103.309 25.7104 103.164 25.9928C103.02 26.2752 102.876 26.5606 102.735 26.846C102.59 27.1284 102.449 27.4168 102.308 27.7052C102.257 27.8043 102.209 27.9035 102.161 28.0026H102.158C102.137 28.0477 102.113 28.0958 102.089 28.1438C102.037 28.252 101.986 28.3571 101.935 28.4623C101.917 28.4983 101.902 28.5344 101.881 28.5734C101.872 28.5945 101.863 28.6155 101.851 28.6395C101.812 28.7236 101.77 28.8108 101.728 28.8979C101.274 29.8322 100.823 30.7816 100.375 31.7429C100.171 32.1845 99.9667 32.6292 99.7623 33.0768C99.1853 34.3386 98.6113 35.6244 98.0402 36.9253C97.8809 37.2858 97.7247 37.6463 97.5654 38.0098C97.4091 38.3733 97.2498 38.7368 97.0905 39.1003C97.0635 39.1634 97.0394 39.2235 97.0094 39.2866C96.7208 39.9566 96.4323 40.6295 96.1438 41.3055C95.7952 42.1196 95.4465 42.9368 95.0979 43.7629C94.9717 44.0544 94.8455 44.3518 94.7222 44.6462C94.6952 44.7153 94.6651 44.7844 94.6351 44.8505C94.5058 45.1629 94.3736 45.4724 94.2414 45.7848C94.0971 46.1303 93.9498 46.4758 93.8026 46.8243H93.7665C93.1744 46.8183 92.5854 46.8063 91.9963 46.7912C91.5755 46.7792 91.1578 46.7672 90.74 46.7492C90.3223 46.7342 89.9045 46.7161 89.4898 46.6951C89.1291 46.6801 88.7685 46.659 88.4078 46.638C88.2185 46.626 88.0261 46.614 87.8368 46.602C87.5573 46.5839 87.2778 46.5659 86.9983 46.5449C86.851 46.5359 86.7007 46.5239 86.5535 46.5118C86.0846 46.4758 85.6188 46.4367 85.1529 46.3947C84.657 46.3496 84.1611 46.3015 83.6712 46.2505C83.3587 46.2174 83.0461 46.1814 82.7336 46.1453C82.4571 46.1153 82.1806 46.0792 81.9041 46.0462C81.324 45.9771 80.75 45.899 80.1789 45.8179C79.638 45.7427 79.1 45.6586 78.565 45.5745H78.562C78.2675 45.5294 77.9729 45.4814 77.6814 45.4273C77.1314 45.3372 76.5874 45.238 76.0495 45.1359C75.5115 45.0337 74.9765 44.9256 74.4506 44.8144C74.2552 44.7724 74.0599 44.7303 73.8675 44.6883C73.1492 44.532 72.446 44.3698 71.7517 44.1956C71.2288 44.0634 70.7118 43.9282 70.2009 43.79C69.8703 43.6968 69.5397 43.6037 69.2121 43.5076C68.9987 43.4475 68.7853 43.3844 68.572 43.3183C67.5681 43.0119 66.6004 42.6904 65.6687 42.3479C40.7026 33.188 21.7082 16.7216 12.6048 7.7209L2.03768 18.401C12.0067 28.258 32.8554 46.3075 60.4903 56.4499C61.7556 56.9126 63.063 57.3482 64.4124 57.7538C64.7521 57.8559 65.0917 57.958 65.4343 58.0542C65.6958 58.1293 65.9602 58.2044 66.2247 58.2765C66.3329 58.3065 66.4411 58.3366 66.5523 58.3666C66.931 58.4688 67.3157 58.5709 67.7004 58.667C67.8416 58.7061 67.9859 58.7422 68.1302 58.7752C68.4097 58.8473 68.6922 58.9164 68.9747 58.9825C69.0979 59.0125 69.2211 59.0426 69.3504 59.0726C69.6659 59.1477 69.9815 59.2198 70.3001 59.2889C71.385 59.5323 72.488 59.7576 73.6091 59.9649C73.8615 60.016 74.117 60.061 74.3724 60.1061C74.6339 60.1542 74.8984 60.1992 75.1659 60.2443C75.2019 60.2533 75.238 60.2593 75.2771 60.2623C75.6377 60.3254 75.9984 60.3855 76.365 60.4426C76.7467 60.5026 77.1314 60.5627 77.5191 60.6198C77.5221 60.6198 77.5221 60.6198 77.5251 60.6198C77.5342 60.6198 77.5402 60.6228 77.5462 60.6228C77.5492 60.6228 77.5552 60.6228 77.5582 60.6258C77.8948 60.6739 78.2314 60.722 78.571 60.77C79.6259 60.9172 80.6899 61.0464 81.7658 61.1606C82.5081 61.2387 83.2535 61.3108 84.0018 61.3769C84.5969 61.431 85.195 61.476 85.7931 61.5211C85.8983 61.5301 86.0035 61.5391 86.1087 61.5451V61.5421C86.4753 61.5692 86.839 61.6022 87.2056 61.6232C87.2838 61.6292 87.3619 61.6322 87.4401 61.6383C87.0824 62.4404 86.7188 63.2425 86.3521 64.0447C86.0786 64.6485 85.7991 65.2494 85.5196 65.8532C85.2401 66.4571 84.9576 67.0609 84.6691 67.6618C84.4767 68.0674 84.2844 68.4759 84.086 68.8815C83.8967 69.2781 83.7043 69.6746 83.512 70.0712H83.509C83.4909 70.1133 83.4729 70.1523 83.4519 70.1914C83.0702 70.9695 82.6855 71.7476 82.2948 72.5197C81.892 73.3248 81.4803 74.1239 81.0625 74.9201C80.9213 75.1965 80.774 75.4728 80.6298 75.7462C80.6267 75.7522 80.6237 75.7583 80.6207 75.7613C80.6177 75.7703 80.6117 75.7793 80.6087 75.7883C80.5877 75.8243 80.5696 75.8604 80.5486 75.8964C80.2901 76.3891 80.0257 76.8818 79.7612 77.3685C79.7432 77.4016 79.7251 77.4346 79.7071 77.4647C79.6951 77.4857 79.686 77.5037 79.677 77.5217C79.5388 77.7741 79.4035 78.0235 79.2653 78.2698C78.538 79.5887 77.7956 80.8925 77.0322 82.1723C76.873 82.4427 76.7107 82.7101 76.5484 82.9775C76.2779 83.4311 76.0014 83.8818 75.7219 84.3294C75.5265 84.6448 75.3282 84.9603 75.1268 85.2727C74.8834 85.6573 74.6369 86.0418 74.3905 86.4203C74.141 86.8019 73.8916 87.1804 73.6361 87.559C73.4528 87.8323 73.2694 88.1057 73.0831 88.3761C72.8697 88.6886 72.6563 88.998 72.4369 89.3074C72.0072 89.9233 71.5684 90.5332 71.1236 91.131C70.6818 91.7319 70.234 92.3207 69.7831 92.9035C69.5517 93.1949 69.3203 93.4894 69.0889 93.7778C68.9116 94.0031 68.7282 94.2254 68.5509 94.4447C68.5449 94.4507 68.5419 94.4567 68.5359 94.4627C67.8386 94.0782 67.1444 93.6967 66.4501 93.3211C66.4111 93.3001 66.369 93.2791 66.3299 93.258C65.9963 93.0778 65.6627 92.8945 65.3291 92.7173C65.1007 92.5971 64.8693 92.4739 64.6408 92.3538C64.6408 92.3538 64.6409 92.3507 64.6378 92.3507C64.4725 92.2636 64.3042 92.1735 64.1359 92.0864C63.7482 91.8821 63.3575 91.6778 62.9668 91.4795C62.8767 91.4314 62.7865 91.3834 62.6933 91.3383C62.3597 91.1641 62.0261 90.9958 61.6925 90.8276C60.5264 90.2357 59.3633 89.6649 58.1972 89.1182C58.0319 89.0401 57.8666 88.9619 57.7013 88.8868C57.6472 88.8598 57.5931 88.8328 57.539 88.8087C57.4999 88.7907 57.4639 88.7727 57.4278 88.7547C57.3527 88.7186 57.2745 88.6825 57.1964 88.6495C57.1423 88.6255 57.0882 88.5984 57.0341 88.5744C56.9379 88.5293 56.8417 88.4873 56.7456 88.4422C56.5502 88.3521 56.3579 88.265 56.1625 88.1778C55.7057 87.9735 55.2519 87.7723 54.7951 87.574C54.4554 87.4238 54.1158 87.2796 53.7792 87.1384C53.2893 86.9311 52.7994 86.7298 52.3126 86.5345C51.976 86.3963 51.6393 86.2641 51.3027 86.1319C50.891 85.9727 50.4792 85.8135 50.0645 85.6603C50.0555 85.6573 50.0465 85.6543 50.0375 85.6513C49.6317 85.498 49.226 85.3508 48.8172 85.2066C47.6421 84.786 46.458 84.3985 45.2738 84.041C45.2648 84.038 45.2588 84.038 45.2498 84.035C44.7809 83.8938 44.3121 83.7556 43.8433 83.6264C43.6209 83.5633 43.3985 83.5032 43.176 83.4431C43.1009 83.4221 43.0258 83.4041 42.9506 83.383C42.6531 83.3049 42.3556 83.2268 42.055 83.1517C41.7575 83.0796 41.4569 83.0045 41.1594 82.9354C40.8589 82.8663 40.5583 82.7972 40.2578 82.7311C39.9873 82.671 39.7168 82.614 39.4433 82.5569C38.8122 82.4277 38.178 82.3075 37.5439 82.1994C37.2974 82.1573 37.051 82.1153 36.8045 82.0762C36.6873 82.0582 36.5731 82.0401 36.4589 82.0221C36.2876 81.9981 36.1163 81.971 35.945 81.947C35.8157 81.929 35.6865 81.911 35.5603 81.8929C35.3078 81.8599 35.0584 81.8268 34.8059 81.7968C34.5354 81.7637 34.2649 81.7307 33.9945 81.7037C33.9253 81.6947 33.8562 81.6887 33.7871 81.6826C33.5136 81.6526 33.2401 81.6256 32.9636 81.6015C32.7292 81.5805 32.4947 81.5625 32.2603 81.5444H32.2573C32.062 81.5294 31.8636 81.5144 31.6652 81.5024C31.4699 81.4904 31.2715 81.4784 31.0762 81.4663C30.8928 81.4573 30.7065 81.4483 30.5202 81.4423C30.445 81.4393 30.3669 81.4363 30.2888 81.4333C30.1174 81.4243 29.9461 81.4213 29.7718 81.4183C29.5885 81.4093 29.4052 81.4062 29.2218 81.4032C28.9153 81.3972 28.6087 81.3942 28.3022 81.3942C20.0492 81.3942 12.9294 83.9088 7.71495 88.6645C2.81008 93.1349 0 99.3897 0 105.828C0 112.314 2.72292 118.298 7.66385 122.679C12.8092 127.236 19.9471 129.643 28.3022 129.643H28.3502C37.3215 129.588 45.7367 127.915 53.4456 124.668C53.4486 124.668 53.4516 124.668 53.4546 124.665C55.336 123.874 57.1754 122.988 58.9696 122.009C59.2431 121.859 59.5166 121.708 59.7871 121.555C60.0546 121.405 60.322 121.252 60.5865 121.095C60.7638 120.993 60.9412 120.888 61.1155 120.783C61.2688 120.69 61.425 120.597 61.5783 120.504C61.7887 120.374 61.9991 120.245 62.2095 120.116C62.7655 119.768 63.3155 119.413 63.8624 119.05C64.0818 118.902 64.3012 118.752 64.5206 118.602C64.7791 118.428 65.0346 118.247 65.29 118.067C65.296 118.064 65.3051 118.058 65.3141 118.052C65.5605 117.875 65.81 117.698 66.0534 117.517C66.3089 117.334 66.5613 117.145 66.8138 116.956C67.0212 116.802 67.2255 116.646 67.4299 116.487C68.5299 115.643 69.6148 114.756 70.6818 113.825C70.784 113.738 70.8831 113.651 70.9853 113.555H70.9883C71.0785 113.477 71.1717 113.396 71.2618 113.314C72.6563 114.12 74.0629 114.934 75.4845 115.751C76.0375 116.069 76.5965 116.388 77.1555 116.706C77.5762 116.947 78 117.19 78.4268 117.427V117.43C78.4298 117.43 78.4298 117.43 78.4298 117.43C78.5951 117.523 78.7604 117.62 78.9287 117.713C79.0038 117.755 79.082 117.8 79.1571 117.842C79.662 118.124 80.1669 118.41 80.6748 118.689C81.1647 118.962 81.6576 119.236 82.1535 119.509C83.509 120.254 84.8794 120.993 86.2619 121.717C86.2709 121.723 86.283 121.729 86.292 121.732C86.3611 121.771 86.4332 121.81 86.5054 121.847C88.1854 122.727 89.8865 123.592 91.6116 124.43C91.8731 124.556 92.1345 124.683 92.399 124.809C93.6613 125.416 94.9356 126.004 96.2189 126.578C96.7569 126.819 97.3009 127.056 97.8449 127.29C98.1184 127.407 98.3889 127.525 98.6623 127.639C98.9358 127.756 99.2093 127.87 99.4828 127.981C99.6451 128.05 99.8074 128.116 99.9697 128.182C100.288 128.312 100.61 128.441 100.928 128.57C101.896 128.958 102.873 129.333 103.856 129.694C104.183 129.814 104.511 129.934 104.839 130.051C105.196 130.18 105.554 130.306 105.914 130.43C106.546 130.646 107.183 130.859 107.82 131.067C107.838 131.076 107.856 131.079 107.871 131.085C108.187 131.187 108.505 131.286 108.824 131.385C109.494 131.595 110.167 131.8 110.843 131.995C111.459 132.172 112.076 132.343 112.698 132.509C113.167 132.635 113.638 132.758 114.113 132.872C114.39 132.944 114.666 133.01 114.943 133.076C115.288 133.161 115.634 133.239 115.98 133.317C116.379 133.41 116.779 133.497 117.179 133.581C117.461 133.641 117.747 133.698 118.032 133.755C118.056 133.761 118.083 133.767 118.108 133.77C118.351 133.818 118.597 133.867 118.844 133.915C120.244 134.182 121.66 134.413 123.091 134.606C123.304 134.636 123.52 134.666 123.737 134.69C123.992 134.726 124.248 134.756 124.503 134.786C124.828 134.825 125.155 134.861 125.48 134.894C125.865 134.933 126.249 134.972 126.634 135.005C126.928 135.032 127.223 135.056 127.518 135.077C127.542 135.08 127.563 135.083 127.584 135.083C127.896 135.107 128.209 135.131 128.524 135.149C128.837 135.17 129.152 135.188 129.468 135.203H129.471C129.687 135.215 129.904 135.227 130.123 135.233C130.37 135.245 130.616 135.254 130.866 135.264C130.965 135.267 131.061 135.27 131.16 135.273C131.485 135.282 131.812 135.288 132.14 135.294H132.167C132.537 135.3 132.909 135.303 133.282 135.303C164.283 135.303 181.291 100.474 182 98.9901L168.448 92.501ZM120.118 26.4404C120.211 26.2902 120.304 26.14 120.398 25.9928C120.488 25.8426 120.584 25.6954 120.677 25.5512C120.999 25.0494 121.32 24.5597 121.648 24.0881C121.765 23.9198 121.882 23.7516 121.997 23.5864C122.721 22.5589 123.457 21.6096 124.203 20.7443C124.308 20.6212 124.413 20.501 124.518 20.3808C124.662 20.2216 124.804 20.0654 124.948 19.9122C125.059 19.789 125.173 19.6688 125.287 19.5517C125.675 19.1521 126.066 18.7736 126.46 18.4221C126.589 18.3079 126.715 18.1967 126.844 18.0886C126.94 18.0045 127.037 17.9264 127.133 17.8482C127.199 17.7912 127.265 17.7371 127.334 17.683C127.557 17.5088 127.782 17.3375 128.01 17.1753C128.14 17.0852 128.272 16.995 128.401 16.9109C128.663 16.7337 128.927 16.5714 129.192 16.4212C129.318 16.3491 129.444 16.28 129.573 16.2109C129.579 16.2079 129.585 16.2049 129.591 16.2019C129.723 16.1328 129.859 16.0667 129.994 16.0036C130.129 15.9375 130.261 15.8775 130.397 15.8204C130.532 15.7603 130.67 15.7062 130.805 15.6551C130.929 15.6071 131.049 15.562 131.172 15.523C131.211 15.5079 131.253 15.4959 131.292 15.4839C131.398 15.4478 131.506 15.4148 131.611 15.3878C131.698 15.3607 131.782 15.3367 131.869 15.3157C131.957 15.2916 132.044 15.2706 132.131 15.2526C132.239 15.2255 132.35 15.2045 132.458 15.1835C132.594 15.1564 132.729 15.1354 132.864 15.1144C132.888 15.1114 132.912 15.1084 132.933 15.1054C133.057 15.0873 133.18 15.0723 133.303 15.0633C133.42 15.0513 133.537 15.0423 133.655 15.0363C133.7 15.0333 133.742 15.0303 133.787 15.0303C133.91 15.0242 134.036 15.0212 134.16 15.0212C134.265 15.0212 134.367 15.0242 134.472 15.0272C136.864 15.1084 138.875 16.0247 140.444 17.7461C142.178 19.6508 142.719 21.8439 142.659 22.8563C142.301 28.8889 139.131 33.7858 132.963 37.8235C132.789 37.9377 132.612 38.0519 132.431 38.163C131.31 38.869 130.105 39.539 128.828 40.1638C128.72 40.2179 128.614 40.269 128.506 40.3231H128.503C128.353 40.3952 128.2 40.4673 128.046 40.5394C127.599 40.7497 127.145 40.954 126.682 41.1522C125.913 41.4827 125.125 41.7982 124.314 42.1016C123.989 42.2248 123.659 42.3449 123.325 42.4591C123.012 42.5703 122.694 42.6814 122.375 42.7866C122.357 42.7896 122.339 42.7986 122.318 42.8046C121.981 42.9187 121.639 43.0299 121.293 43.1351C120.948 43.2462 120.599 43.3514 120.247 43.4535C120.226 43.4595 120.208 43.4655 120.19 43.4715C119.505 43.6698 118.808 43.8651 118.098 44.0483C118.098 44.0514 118.098 44.0514 118.098 44.0514C118.038 44.0664 117.981 44.0814 117.921 44.0964C117.669 44.1625 117.416 44.2256 117.158 44.2887C117.152 44.2887 117.143 44.2917 117.134 44.2947C116.938 44.3428 116.743 44.3908 116.548 44.4329C116.226 44.511 115.902 44.5861 115.574 44.6612C115.159 44.7513 114.738 44.8415 114.318 44.9286C114.08 44.9767 113.84 45.0247 113.602 45.0728C113.392 45.1149 113.182 45.1569 112.971 45.196C112.307 45.3222 111.637 45.4393 110.958 45.5505C110.855 45.5685 110.753 45.5835 110.651 45.6015C111.144 44.4599 111.637 43.3303 112.13 42.2158H112.133C112.388 41.6419 112.644 41.0711 112.896 40.5063C113.025 40.2209 113.152 39.9415 113.281 39.6591C113.792 38.5385 114.303 37.436 114.82 36.3575C114.922 36.1381 115.027 35.9188 115.135 35.7025C115.156 35.6545 115.18 35.6064 115.204 35.5553C115.793 34.3356 116.388 33.1489 116.983 32.0013C117.008 31.9562 117.029 31.9142 117.05 31.8751C118.059 29.9404 119.078 28.1198 120.118 26.4404ZM56.2347 106.08C56.0423 106.215 55.853 106.348 55.6576 106.477C55.5825 106.528 55.5073 106.579 55.4322 106.627C55.2729 106.735 55.1136 106.84 54.9543 106.942C54.8101 107.039 54.6658 107.132 54.5216 107.219C54.0617 107.516 53.6019 107.799 53.1361 108.075C52.6251 108.375 52.1082 108.667 51.5883 108.949C51.5011 108.997 51.4109 109.045 51.3238 109.09C51.1134 109.202 50.903 109.313 50.6926 109.421C50.6656 109.433 50.6385 109.448 50.6115 109.463C50.3711 109.586 50.1276 109.706 49.8842 109.823C49.8451 109.845 49.806 109.863 49.767 109.881C49.6017 109.962 49.4364 110.04 49.2711 110.115C48.9284 110.28 48.5828 110.436 48.2342 110.587C48.0719 110.662 47.9066 110.731 47.7413 110.8C47.6632 110.836 47.585 110.869 47.5039 110.902C47.3536 110.965 47.2033 111.025 47.0531 111.088C46.9148 111.145 46.7736 111.199 46.6323 111.257C46.4971 111.311 46.3588 111.365 46.2205 111.416C45.8359 111.563 45.4482 111.707 45.0574 111.845C44.9553 111.881 44.8531 111.914 44.7509 111.951C44.5495 112.023 44.3512 112.089 44.1498 112.152C44.1408 112.155 44.1348 112.158 44.1258 112.161C43.9034 112.236 43.678 112.308 43.4525 112.377C42.9717 112.527 42.4908 112.669 42.0069 112.801C41.9048 112.831 41.8056 112.858 41.7034 112.885C41.4599 112.951 41.2165 113.014 40.9731 113.074C40.7266 113.137 40.4772 113.197 40.2307 113.254L39.9602 113.317C39.6777 113.384 39.3982 113.444 39.1127 113.504C38.8633 113.555 38.6138 113.606 38.3643 113.654C38.2261 113.684 38.0878 113.708 37.9496 113.732C37.8384 113.753 37.7302 113.774 37.619 113.792C37.3936 113.834 37.1682 113.873 36.9398 113.909C36.8496 113.924 36.7625 113.939 36.6723 113.951C36.498 113.981 36.3237 114.008 36.1463 114.032C35.7827 114.087 35.419 114.138 35.0554 114.183C34.8149 114.213 34.5745 114.243 34.3311 114.267C34.319 114.27 34.304 114.273 34.292 114.273C34.0185 114.303 33.742 114.333 33.4655 114.36C33.3964 114.366 33.3302 114.372 33.2611 114.378C32.9606 114.408 32.66 114.432 32.3565 114.456C32.3264 114.456 32.2964 114.459 32.2663 114.462C31.9598 114.486 31.6502 114.504 31.3407 114.522C31.0461 114.54 30.7486 114.555 30.451 114.567C30.2196 114.576 29.9882 114.585 29.7568 114.591C29.5344 114.6 29.312 114.606 29.0896 114.609C28.8221 114.615 28.5516 114.618 28.2811 114.621C18.4984 114.615 15.0272 109.881 15.0272 105.828C15.0272 101.294 19.1807 96.4155 28.3022 96.4155C28.5967 96.4155 28.8912 96.4185 29.1858 96.4275C29.4593 96.4335 29.7327 96.4425 30.0062 96.4576C30.0423 96.4576 30.0814 96.4606 30.1174 96.4636C30.3969 96.4756 30.6765 96.4936 30.956 96.5146C31.2204 96.5327 31.4849 96.5567 31.7494 96.5807C31.8365 96.5898 31.9267 96.5988 32.0139 96.6078C32.2002 96.6258 32.3865 96.6468 32.5729 96.6679C32.6901 96.6799 32.8103 96.6949 32.9275 96.7129C33.1078 96.734 33.2912 96.758 33.4715 96.785C33.5406 96.791 33.6128 96.8 33.6819 96.8121C33.8742 96.8391 34.0636 96.8691 34.2559 96.8992C34.3912 96.9202 34.5264 96.9412 34.6617 96.9653C34.9081 97.0043 35.1545 97.0494 35.398 97.0945C35.6955 97.1485 35.9901 97.2056 36.2876 97.2687C36.5851 97.3288 36.8827 97.3919 37.1802 97.461C37.4056 97.5091 37.631 97.5631 37.8564 97.6172C37.9015 97.6292 37.9496 97.6382 37.9947 97.6503C38.148 97.6893 38.3012 97.7254 38.4575 97.7674C39.2389 97.9627 40.0203 98.179 40.8018 98.4133C41.0302 98.4824 41.2616 98.5545 41.49 98.6266C41.5651 98.6477 41.6403 98.6717 41.7154 98.6987C41.9649 98.7768 42.2143 98.858 42.4638 98.9391C42.6711 99.0082 42.8815 99.0773 43.0889 99.1524C43.2572 99.2065 43.4285 99.2665 43.5968 99.3266C44.0657 99.4919 44.5345 99.6631 45.0064 99.8403C45.1957 99.9094 45.388 99.9816 45.5804 100.06C45.8749 100.171 46.1695 100.285 46.464 100.405C46.6834 100.489 46.9058 100.579 47.1252 100.673C47.2334 100.715 47.3386 100.757 47.4468 100.802C47.4468 100.802 47.4468 100.802 47.4468 100.805C47.576 100.856 47.7052 100.91 47.8345 100.964C48.0539 101.057 48.2733 101.15 48.4957 101.243C48.5227 101.255 48.5528 101.267 48.5798 101.279C48.8022 101.376 49.0276 101.472 49.253 101.574C49.7279 101.778 50.2027 101.991 50.6776 102.211C51.3057 102.496 51.9339 102.791 52.565 103.094C52.8626 103.235 53.1631 103.382 53.4636 103.527C54.0828 103.83 54.7049 104.139 55.327 104.458C55.5584 104.575 55.7868 104.692 56.0183 104.809C56.403 105.008 56.7907 105.209 57.1754 105.41C57.0491 105.503 56.9199 105.593 56.7937 105.684C56.6073 105.819 56.421 105.951 56.2347 106.08Z" fill="white"/>
<path d="M157.659 23.7396C157.022 34.5399 151.33 43.754 141.198 50.3904C140.949 50.5526 140.699 50.7148 140.444 50.8741C140.36 50.9251 140.279 50.9792 140.194 51.0273C140.026 51.1324 139.858 51.2346 139.69 51.3367C139.59 51.3968 139.494 51.4569 139.395 51.514C139.167 51.6492 138.938 51.7843 138.707 51.9135C138.541 52.0097 138.376 52.1058 138.208 52.1959C137.973 52.3311 137.736 52.4603 137.496 52.5865C137.204 52.7457 136.906 52.9019 136.609 53.0581C136.594 53.0642 136.579 53.0732 136.561 53.0822C136.242 53.2444 135.921 53.4066 135.596 53.5659C135.263 53.7311 134.929 53.8903 134.589 54.0496C134.25 54.2088 133.907 54.365 133.561 54.5212C133.216 54.6744 132.864 54.8277 132.513 54.9779C131.455 55.4285 130.37 55.8581 129.255 56.2667C128.945 56.3809 128.636 56.492 128.32 56.6032C128.215 56.6392 128.113 56.6753 128.007 56.7113C127.671 56.8285 127.334 56.9426 126.995 57.0568C126.664 57.165 126.33 57.2731 125.997 57.3783C125.877 57.4173 125.756 57.4534 125.633 57.4924C125.354 57.5795 125.074 57.6667 124.792 57.7508C124.103 57.9551 123.409 58.1534 122.703 58.3456C122.483 58.4057 122.264 58.4658 122.042 58.5229C121.435 58.6821 120.821 58.8353 120.202 58.9855C119.962 59.0426 119.718 59.1027 119.472 59.1568C119.192 59.2229 118.91 59.286 118.624 59.3491C118.342 59.4121 118.056 59.4752 117.771 59.5353C117.768 59.5353 117.768 59.5353 117.765 59.5383C117.284 59.6405 116.8 59.7396 116.313 59.8327C115.823 59.9289 115.333 60.022 114.838 60.1121C114.345 60.2023 113.846 60.2894 113.344 60.3705C112.857 60.4516 112.367 60.5297 111.874 60.6018C111.808 60.6138 111.742 60.6229 111.676 60.6319C111.279 60.692 110.879 60.749 110.48 60.8031C110.347 60.8211 110.218 60.8392 110.086 60.8542C109.647 60.9143 109.208 60.9714 108.77 61.0224C108.298 61.0795 107.823 61.1336 107.348 61.1847C107.27 61.1937 107.189 61.2027 107.111 61.2087C106.63 61.2628 106.146 61.3078 105.662 61.3529C105.656 61.3559 105.647 61.3559 105.641 61.3559C106.383 60.9563 107.072 60.4787 107.697 59.7246C108.776 58.4237 109.482 56.8705 110.074 55.2993C110.699 53.641 111.123 51.9195 111.649 50.2281C112.175 48.5428 112.719 46.9084 112.971 45.196V45.193C113.182 45.154 113.392 45.1119 113.602 45.0728C113.84 45.0248 114.08 44.9767 114.318 44.9286C114.738 44.8415 115.159 44.7514 115.574 44.6613C115.902 44.5861 116.226 44.511 116.548 44.4329C116.746 44.3879 116.941 44.3428 117.134 44.2947C117.143 44.2917 117.152 44.2887 117.158 44.2887C117.416 44.2256 117.669 44.1625 117.921 44.0965C117.981 44.0814 118.038 44.0664 118.098 44.0514C118.098 44.0514 118.098 44.0514 118.098 44.0484C118.808 43.8651 119.505 43.6698 120.19 43.4716C120.208 43.4656 120.226 43.4596 120.247 43.4535C120.599 43.3484 120.948 43.2432 121.293 43.1351C121.639 43.0269 121.981 42.9158 122.318 42.8046C122.339 42.7986 122.357 42.7896 122.375 42.7866C122.694 42.6814 123.012 42.5703 123.325 42.4591C123.659 42.345 123.989 42.2248 124.314 42.1016C125.125 41.7982 125.913 41.4828 126.682 41.1523C127.145 40.954 127.599 40.7497 128.046 40.5394C128.2 40.4673 128.353 40.3952 128.503 40.3231H128.506C128.614 40.269 128.72 40.218 128.828 40.1639C130.105 39.539 131.31 38.8691 132.431 38.1631C132.612 38.0519 132.789 37.9377 132.963 37.8236C139.13 33.7859 142.301 28.8889 142.659 22.8564C142.719 21.8439 142.178 19.6508 140.444 17.7461C138.875 16.0247 136.864 15.1084 134.472 15.0273C134.367 15.0243 134.265 15.0213 134.16 15.0213C134.036 15.0213 133.91 15.0243 133.787 15.0303C133.742 15.0303 133.7 15.0333 133.655 15.0363C133.537 15.0423 133.42 15.0513 133.303 15.0633C133.18 15.0723 133.057 15.0874 132.933 15.1054C132.912 15.1084 132.888 15.1114 132.864 15.1144C132.729 15.1354 132.594 15.1565 132.458 15.1835C132.35 15.2045 132.239 15.2256 132.131 15.2526C132.044 15.2706 131.957 15.2917 131.869 15.3157C131.782 15.3367 131.698 15.3608 131.611 15.3878C131.506 15.4148 131.398 15.4479 131.292 15.4839C131.253 15.4959 131.211 15.508 131.172 15.523C131.049 15.562 130.929 15.6071 130.805 15.6552C130.67 15.7062 130.532 15.7603 130.397 15.8204C130.261 15.8775 130.129 15.9376 129.994 16.0037C129.859 16.0668 129.723 16.1328 129.591 16.2019C129.585 16.205 129.579 16.208 129.573 16.211C129.444 16.2801 129.318 16.3492 129.192 16.4213C128.927 16.5715 128.663 16.7337 128.401 16.911C128.272 16.9951 128.14 17.0852 128.01 17.1753C127.782 17.3376 127.557 17.5088 127.334 17.683C127.265 17.7371 127.199 17.7912 127.133 17.8483C127.037 17.9264 126.94 18.0045 126.844 18.0886C126.715 18.1938 126.589 18.3049 126.46 18.4221C126.066 18.7736 125.675 19.1521 125.287 19.5517C125.173 19.6689 125.059 19.789 124.948 19.9122C124.804 20.0654 124.662 20.2216 124.518 20.3809C124.413 20.501 124.308 20.6212 124.203 20.7444C123.457 21.6096 122.721 22.559 121.997 23.5864C121.882 23.7516 121.765 23.9199 121.648 24.0881C121.32 24.5598 120.999 25.0495 120.677 25.5512C120.584 25.6984 120.491 25.8456 120.398 25.9928C120.304 26.14 120.211 26.2902 120.118 26.4404C119.078 28.1198 118.059 29.9404 117.05 31.8751C117.029 31.9142 117.008 31.9563 116.983 32.0013C116.388 33.1489 115.793 34.3356 115.204 35.5554C115.18 35.6064 115.156 35.6545 115.135 35.7026C115.027 35.9189 114.922 36.1382 114.82 36.3575C114.303 37.436 113.792 38.5386 113.281 39.6592C113.152 39.9416 113.025 40.221 112.896 40.5064C112.644 41.0712 112.388 41.642 112.133 42.2158H112.13C111.748 42.1827 111.351 42.336 111.111 42.7205C109.175 45.8389 107.865 49.2578 106.371 52.5985C105.154 55.3234 103.648 57.901 102.335 60.5778C102.064 60.71 101.797 60.8512 101.545 61.0224C101.01 61.3829 100.559 61.9027 99.9937 62.2181C98.4369 63.0954 95.7982 62.6237 94.07 62.5726C92.7416 62.5336 91.4673 62.5666 90.148 62.6567C89.9586 62.6718 89.7693 62.6868 89.5739 62.6988C90.9053 60.3495 91.3682 57.5765 92.1826 54.9869C92.7837 53.0792 93.6553 51.1354 93.9528 49.1556C94.1211 48.038 94.0761 46.8934 94.2414 45.7848C94.3736 45.4724 94.5058 45.163 94.6351 44.8505C94.6651 44.7844 94.6952 44.7153 94.7222 44.6462C94.8454 44.3518 94.9717 44.0544 95.0979 43.763C95.4465 42.9368 95.7952 42.1197 96.1438 41.3055C96.4323 40.6295 96.7208 39.9566 97.0094 39.2866C97.0394 39.2236 97.0634 39.1635 97.0905 39.1004C97.2498 38.7369 97.4091 38.3733 97.5654 38.0098C97.7246 37.6463 97.8809 37.2858 98.0402 36.9253C98.6112 35.6245 99.1853 34.3386 99.7623 33.0768C99.9667 32.6292 100.171 32.1846 100.375 31.743C100.823 30.7816 101.274 29.8323 101.728 28.8979C101.77 28.8108 101.812 28.7237 101.851 28.6396C101.863 28.6155 101.872 28.5945 101.881 28.5735C101.902 28.5344 101.917 28.4984 101.935 28.4623L102.161 28.0027C102.209 27.9035 102.257 27.8044 102.308 27.7052C102.449 27.4168 102.59 27.1284 102.735 26.846C102.876 26.5606 103.02 26.2752 103.164 25.9928C103.309 25.7104 103.453 25.431 103.597 25.1516C104.174 24.037 104.757 22.9465 105.352 21.883C105.5 21.6186 105.65 21.3542 105.8 21.0929C105.92 20.8766 106.044 20.6633 106.167 20.453C106.278 20.2607 106.389 20.0714 106.501 19.8822C106.654 19.6238 106.807 19.3654 106.963 19.1101C107.078 18.9178 107.195 18.7285 107.312 18.5393C107.414 18.371 107.516 18.2058 107.622 18.0405C107.775 17.7942 107.931 17.5479 108.084 17.3045C108.397 16.8208 108.713 16.3431 109.028 15.8745C116.485 4.85788 124.975 -0.327465 134.989 0.0150204C141.397 0.234331 147.278 2.94116 151.555 7.63381C155.705 12.1883 157.987 18.2088 157.659 23.7396Z" fill="white"/>
<path d="M108.749 52.5144C108.577 52.9049 108.406 53.2955 108.232 53.686C107.495 55.3324 106.654 56.9216 105.812 58.5139C107.156 57.1109 107.889 55.1791 108.511 53.2354C108.589 52.9951 108.667 52.7547 108.749 52.5144Z" fill="white"/>
<path d="M168.448 92.501C168.313 92.7774 154.774 120.281 133.282 120.281C133.017 120.281 132.756 120.278 132.491 120.275C132.344 120.275 132.194 120.272 132.044 120.266C131.878 120.266 131.716 120.26 131.554 120.254C131.343 120.251 131.133 120.242 130.923 120.233C130.661 120.224 130.4 120.212 130.141 120.197C129.904 120.185 129.669 120.173 129.435 120.155C129.387 120.152 129.336 120.149 129.282 120.146C129.059 120.131 128.834 120.116 128.611 120.098C127.827 120.038 127.046 119.96 126.267 119.87C125.819 119.819 125.372 119.762 124.924 119.699C124.861 119.69 124.798 119.681 124.734 119.671C124.587 119.65 124.437 119.629 124.29 119.608C124.115 119.581 123.941 119.554 123.767 119.527C123.484 119.485 123.202 119.437 122.919 119.389C122.61 119.338 122.3 119.281 121.991 119.224C121.78 119.188 121.57 119.146 121.362 119.104C120.912 119.02 120.464 118.926 120.013 118.83C119.821 118.788 119.631 118.746 119.439 118.704C119.15 118.641 118.862 118.575 118.573 118.503C118.117 118.398 117.657 118.284 117.2 118.166C115.219 117.659 113.26 117.07 111.315 116.409C111.045 116.319 110.774 116.226 110.504 116.129C110.047 115.97 109.59 115.808 109.133 115.64C108.655 115.463 108.178 115.285 107.7 115.099C107.222 114.916 106.741 114.726 106.266 114.534C105.803 114.351 105.343 114.162 104.884 113.969C104.869 113.96 104.851 113.954 104.836 113.948C104.394 113.762 103.952 113.576 103.513 113.384C103.441 113.354 103.369 113.32 103.297 113.29C102.936 113.134 102.575 112.975 102.218 112.813C100.189 111.905 98.1815 110.944 96.1859 109.935C95.7892 109.736 95.3924 109.535 94.9957 109.331C94.7493 109.205 94.5028 109.078 94.2564 108.949C94.2053 108.922 94.1512 108.895 94.0911 108.862C94.0731 108.853 94.055 108.844 94.037 108.832C93.9979 108.814 93.9588 108.796 93.9198 108.775C93.8176 108.721 93.7124 108.667 93.6102 108.613C93.1985 108.4 92.7897 108.18 92.381 107.964C90.4906 106.957 88.6152 105.924 86.7488 104.876C86.7158 104.858 86.6857 104.839 86.6526 104.821C85.8442 104.365 85.0387 103.908 84.2333 103.449C83.6562 103.121 83.0822 102.791 82.5081 102.46C82.3699 102.382 82.2316 102.304 82.0964 102.223C81.9732 102.154 81.853 102.082 81.7297 102.012C81.7718 101.955 81.8169 101.901 81.859 101.844C82.1325 101.493 82.406 101.135 82.6734 100.778C82.8628 100.528 83.0491 100.279 83.2325 100.027C83.3346 99.8915 83.4338 99.7563 83.533 99.6181C83.9898 98.9932 84.4406 98.3653 84.8824 97.7284C85.0147 97.5421 85.1469 97.3529 85.2761 97.1636C85.4655 96.8902 85.6548 96.6108 85.8442 96.3344C86.0305 96.058 86.2168 95.7787 86.4032 95.4993C87.0433 94.5379 87.6715 93.5645 88.2876 92.5821C88.2966 92.5671 88.3086 92.5491 88.3207 92.531C88.6122 92.0624 88.9067 91.5877 89.1952 91.113C89.2073 91.092 89.2193 91.071 89.2313 91.053C89.5018 90.6113 89.7663 90.1667 90.0307 89.7221C90.0788 89.638 90.1269 89.5598 90.175 89.4787C90.4425 89.0281 90.704 88.5774 90.9654 88.1238C90.9745 88.1088 90.9835 88.0938 90.9895 88.0787C91.257 87.6191 91.5214 87.1534 91.7829 86.6908C91.81 86.6397 91.837 86.5916 91.8641 86.5466C92.1406 86.0509 92.4171 85.5582 92.6875 85.0595C92.9671 84.5487 93.2466 84.038 93.5201 83.5243C93.7364 83.1187 93.9528 82.7101 94.1662 82.3016H94.1692C94.1722 82.2956 94.1752 82.2925 94.1782 82.2865C94.2323 82.1844 94.2834 82.0823 94.3375 81.9801C94.608 81.4634 94.8755 80.9466 95.14 80.4269C95.3804 79.9612 95.6178 79.4926 95.8523 79.0239C95.9004 78.9308 95.9454 78.8407 95.9935 78.7475V78.7445C96.264 78.2038 96.5345 77.66 96.802 77.1132C97.0244 76.6566 97.2468 76.1999 97.4692 75.7433C97.7216 75.2205 97.9711 74.6978 98.2175 74.175C98.461 73.6673 98.7014 73.1566 98.9358 72.6489C99.0951 72.3064 99.2574 71.9579 99.4197 71.6064C99.5099 71.4171 99.597 71.2249 99.6842 71.0356C100.018 70.3086 100.348 69.5845 100.673 68.8575C100.784 68.6112 100.895 68.3618 101.01 68.1125C101.04 68.0404 101.073 67.9713 101.106 67.8992C101.124 67.8541 101.145 67.812 101.163 67.77C101.187 67.7189 101.211 67.6648 101.232 67.6138C101.25 67.5777 101.265 67.5447 101.28 67.5086C101.397 67.2442 101.515 66.9829 101.632 66.7185C101.758 66.4331 101.884 66.1447 102.01 65.8593C102.251 65.3065 102.491 64.7597 102.732 64.2099C102.329 64.3481 101.836 64.1438 101.545 63.7683C101.394 63.8765 101.244 63.9816 101.082 64.0777C100.309 64.5344 99.4708 64.6576 98.5872 64.7237C96.2941 64.8979 94.0039 64.5915 91.7108 64.6846C90.4695 64.7357 89.1532 65.0271 87.9119 64.7928C87.428 65.0211 86.7699 64.8679 86.5114 64.3752C86.4543 64.264 86.4002 64.1559 86.3521 64.0447C86.0786 64.6486 85.7991 65.2494 85.5196 65.8533C85.2401 66.4571 84.9576 67.061 84.6691 67.6618C84.4767 68.0704 84.2814 68.476 84.086 68.8816C83.8967 69.2781 83.7043 69.6747 83.512 70.0712H83.509C83.4909 70.1133 83.4729 70.1524 83.4519 70.1914C83.0702 70.9695 82.6855 71.7476 82.2948 72.5197C81.892 73.3248 81.4803 74.124 81.0625 74.9201C80.9213 75.1965 80.774 75.4729 80.6298 75.7463C80.6267 75.7523 80.6237 75.7583 80.6207 75.7613C80.5967 75.8064 80.5727 75.8514 80.5486 75.8965C80.2901 76.3892 80.0257 76.8819 79.7612 77.3686C79.7432 77.4016 79.7251 77.4347 79.7071 77.4647C79.6951 77.4857 79.686 77.5038 79.677 77.5218H79.674C79.5388 77.7742 79.4035 78.0235 79.2653 78.2699C78.538 79.5887 77.7956 80.8926 77.0322 82.1724C76.873 82.4428 76.7107 82.7101 76.5484 82.9775C76.2779 83.4312 76.0014 83.8818 75.7219 84.3294C75.5265 84.6449 75.3282 84.9603 75.1268 85.2728C74.8834 85.6573 74.6369 86.0419 74.3905 86.4204C74.141 86.8019 73.8916 87.1805 73.6361 87.559C73.4558 87.8324 73.2694 88.1058 73.0831 88.3762C72.8697 88.6886 72.6563 88.998 72.4369 89.3075C72.0072 89.9234 71.5684 90.5332 71.1236 91.1311C70.6848 91.7319 70.237 92.3207 69.7831 92.9036C69.5517 93.195 69.3203 93.4894 69.0889 93.7778C68.9116 94.0031 68.7282 94.2254 68.5509 94.4448C68.5449 94.4508 68.5419 94.4568 68.5359 94.4628C67.8386 94.0782 67.1444 93.6967 66.4501 93.3212C66.4111 93.3001 66.369 93.2791 66.3299 93.2581C65.9963 93.0778 65.6627 92.8946 65.3291 92.7173C65.1007 92.5971 64.8693 92.474 64.6408 92.3538C64.6408 92.3538 64.6409 92.3508 64.6378 92.3508C64.4725 92.2637 64.3042 92.1735 64.1359 92.0864C63.7482 91.8821 63.3575 91.6778 62.9668 91.4796C62.8767 91.4315 62.7865 91.3834 62.6933 91.3384C62.3597 91.1641 62.0261 90.9959 61.6925 90.8276C60.5264 90.2358 59.3633 89.665 58.1972 89.1182C58.0319 89.0401 57.8666 88.962 57.7013 88.8869C57.6472 88.8598 57.5931 88.8328 57.539 88.8088C57.4248 88.7547 57.3106 88.7006 57.1964 88.6495C57.1423 88.6255 57.0882 88.5985 57.0341 88.5744C56.9379 88.5294 56.8417 88.4873 56.7456 88.4423C56.5502 88.3521 56.3579 88.265 56.1625 88.1779C55.7057 87.9736 55.2519 87.7723 54.7951 87.574C54.4554 87.4238 54.1158 87.2796 53.7792 87.1384C53.2893 86.9311 52.7994 86.7298 52.3126 86.5346C51.976 86.3964 51.6393 86.2642 51.3027 86.132C50.891 85.9728 50.4792 85.8135 50.0645 85.6603C50.0555 85.6573 50.0465 85.6543 50.0375 85.6513C49.6317 85.4981 49.226 85.3509 48.8172 85.2067C47.6421 84.7861 46.458 84.3985 45.2738 84.041C45.2648 84.038 45.2588 84.038 45.2498 84.035C44.7809 83.8938 44.3121 83.7556 43.8433 83.6264C43.6209 83.5633 43.3985 83.5033 43.176 83.4432C43.1009 83.4221 43.0258 83.4041 42.9506 83.3831C42.6531 83.305 42.3556 83.2269 42.055 83.1518C41.7575 83.0797 41.4569 83.0046 41.1594 82.9355C40.8589 82.8664 40.5583 82.7973 40.2578 82.7312C39.9873 82.6711 39.7168 82.614 39.4433 82.5569C38.8122 82.4277 38.178 82.3076 37.5439 82.1994C37.2974 82.1574 37.051 82.1153 36.8045 82.0762C36.6873 82.0582 36.5731 82.0402 36.4589 82.0222C36.2876 81.9981 36.1163 81.9711 35.945 81.9471C35.8157 81.929 35.6865 81.911 35.5603 81.893C35.3078 81.8599 35.0584 81.8269 34.8059 81.7968C34.5354 81.7638 34.2649 81.7308 33.9945 81.7037C33.9253 81.6947 33.8562 81.6887 33.7871 81.6827C33.5136 81.6526 33.2401 81.6256 32.9636 81.6016C32.7292 81.5805 32.4947 81.5625 32.2603 81.5445H32.2573C32.062 81.5295 31.8636 81.5144 31.6652 81.5024C31.4699 81.4904 31.2715 81.4784 31.0762 81.4664C30.8928 81.4574 30.7065 81.4484 30.5202 81.4423C30.445 81.4393 30.3669 81.4363 30.2888 81.4333C30.1174 81.4243 29.9461 81.4213 29.7718 81.4183C29.5885 81.4093 29.4052 81.4063 29.2218 81.4033C28.9153 81.3973 28.6087 81.3943 28.3022 81.3943C20.0492 81.3943 12.9294 83.9088 7.71495 88.6646C2.81008 93.1349 0 99.3898 0 105.828C0 112.314 2.72292 118.299 7.66385 122.679C12.8092 127.236 19.9471 129.643 28.3022 129.643H28.3502C37.3215 129.589 45.7367 127.915 53.4456 124.668C53.4486 124.668 53.4516 124.668 53.4546 124.665C55.336 123.874 57.1754 122.988 58.9696 122.009C59.2431 121.859 59.5166 121.708 59.7871 121.555C60.0546 121.405 60.322 121.252 60.5865 121.096C60.7638 120.993 60.9412 120.888 61.1155 120.783C61.2688 120.69 61.425 120.597 61.5783 120.504C61.7887 120.374 61.9991 120.245 62.2095 120.116C62.7655 119.768 63.3155 119.413 63.8624 119.05C64.0818 118.902 64.3012 118.752 64.5206 118.602C64.7791 118.428 65.0346 118.247 65.29 118.067C65.296 118.064 65.3051 118.058 65.3141 118.052C65.5605 117.875 65.81 117.698 66.0534 117.517C66.3089 117.334 66.5613 117.145 66.8138 116.956C67.0212 116.802 67.2255 116.646 67.4299 116.487C68.5299 115.643 69.6148 114.757 70.6818 113.825C70.784 113.738 70.8831 113.651 70.9853 113.555H70.9883C71.0785 113.477 71.1717 113.396 71.2618 113.314C72.6563 114.12 74.0629 114.934 75.4845 115.751C76.0375 116.069 76.5965 116.388 77.1555 116.706C77.5762 116.947 78 117.19 78.4268 117.427V117.43C78.4298 117.43 78.4298 117.43 78.4298 117.43C78.5951 117.523 78.7604 117.62 78.9287 117.713C79.0038 117.755 79.082 117.8 79.1571 117.842C79.662 118.124 80.1669 118.41 80.6748 118.689C81.1647 118.962 81.6576 119.236 82.1535 119.509C83.509 120.254 84.8794 120.993 86.2619 121.717C86.2709 121.723 86.283 121.729 86.292 121.732C86.3611 121.771 86.4332 121.811 86.5054 121.847C88.1854 122.727 89.8865 123.592 91.6116 124.43C91.8731 124.556 92.1345 124.683 92.399 124.809C93.6613 125.416 94.9356 126.004 96.2189 126.578C96.7569 126.819 97.3009 127.056 97.8449 127.29C98.1184 127.407 98.3889 127.525 98.6623 127.639C98.9358 127.756 99.2093 127.87 99.4828 127.981C99.6451 128.05 99.8074 128.116 99.9697 128.183C100.288 128.312 100.61 128.441 100.928 128.57C101.896 128.958 102.873 129.333 103.856 129.694C104.183 129.814 104.511 129.934 104.839 130.051C105.196 130.18 105.554 130.307 105.914 130.43C106.546 130.646 107.183 130.859 107.82 131.067C107.838 131.076 107.856 131.079 107.871 131.085C108.187 131.187 108.505 131.286 108.824 131.385C109.494 131.598 110.167 131.8 110.843 131.995C111.459 132.172 112.076 132.343 112.698 132.509C113.167 132.635 113.638 132.758 114.113 132.872C114.39 132.944 114.666 133.01 114.943 133.076C115.288 133.161 115.634 133.239 115.98 133.317C116.379 133.41 116.779 133.497 117.179 133.581C117.461 133.641 117.747 133.698 118.032 133.755C118.056 133.761 118.083 133.767 118.108 133.77C118.351 133.819 118.597 133.867 118.844 133.915C120.244 134.182 121.66 134.413 123.091 134.606C123.304 134.636 123.52 134.666 123.737 134.69C123.992 134.726 124.248 134.756 124.503 134.786C124.828 134.825 125.155 134.861 125.48 134.894C125.865 134.933 126.249 134.972 126.634 135.005C126.928 135.032 127.223 135.056 127.518 135.077C127.542 135.08 127.563 135.083 127.584 135.083C127.896 135.107 128.209 135.131 128.524 135.149C128.837 135.17 129.152 135.188 129.468 135.203H129.471C129.687 135.216 129.904 135.228 130.123 135.234C130.37 135.246 130.616 135.255 130.866 135.264C130.965 135.267 131.061 135.27 131.16 135.273C131.485 135.282 131.812 135.288 132.14 135.294H132.167C132.537 135.3 132.909 135.303 133.282 135.303C164.283 135.303 181.291 100.474 182 98.9902L168.448 92.501ZM56.2347 106.08C56.0423 106.215 55.85 106.348 55.6576 106.477C55.5825 106.528 55.5073 106.579 55.4322 106.627C55.2729 106.735 55.1136 106.84 54.9543 106.942C54.8101 107.039 54.6658 107.132 54.5216 107.219C54.0617 107.516 53.6019 107.799 53.1361 108.075C52.6251 108.375 52.1082 108.667 51.5883 108.949C51.5011 108.997 51.4109 109.045 51.3238 109.091C51.1134 109.202 50.903 109.313 50.6926 109.421C50.6656 109.433 50.6385 109.448 50.6115 109.463C50.3711 109.586 50.1276 109.706 49.8842 109.824C49.8451 109.845 49.806 109.863 49.767 109.881C49.6017 109.962 49.4364 110.04 49.2711 110.115C48.9284 110.28 48.5828 110.436 48.2342 110.587C48.0719 110.662 47.9066 110.731 47.7413 110.8C47.6632 110.836 47.585 110.869 47.5039 110.902C47.3536 110.965 47.2033 111.025 47.0531 111.088C46.9148 111.145 46.7736 111.199 46.6323 111.257C46.4971 111.311 46.3588 111.365 46.2205 111.416C45.8359 111.563 45.4482 111.707 45.0574 111.845C44.9553 111.881 44.8531 111.915 44.7509 111.951C44.5525 112.02 44.3512 112.089 44.1498 112.152C44.1408 112.155 44.1348 112.158 44.1258 112.161C43.9034 112.236 43.678 112.308 43.4525 112.377C42.9717 112.527 42.4908 112.669 42.0069 112.801C41.9048 112.831 41.8056 112.858 41.7034 112.885C41.4599 112.951 41.2165 113.014 40.9731 113.074C40.7266 113.137 40.4772 113.197 40.2307 113.254L39.9602 113.317C39.6777 113.384 39.3982 113.444 39.1127 113.504C38.8633 113.555 38.6138 113.606 38.3643 113.654C38.2261 113.681 38.0878 113.708 37.9496 113.732C37.8384 113.753 37.7302 113.774 37.619 113.792C37.3936 113.834 37.1682 113.873 36.9398 113.909C36.8496 113.924 36.7625 113.939 36.6723 113.951C36.498 113.981 36.3237 114.008 36.1463 114.033C35.7827 114.087 35.419 114.138 35.0554 114.183C34.8149 114.213 34.5745 114.243 34.3311 114.267C34.319 114.27 34.304 114.273 34.292 114.273C34.0185 114.303 33.742 114.333 33.4655 114.36C33.3964 114.366 33.3302 114.372 33.2611 114.378C32.9606 114.405 32.66 114.432 32.3565 114.456C32.3264 114.456 32.2964 114.459 32.2663 114.462C31.9598 114.483 31.6502 114.504 31.3407 114.522C31.0461 114.54 30.7486 114.555 30.451 114.567C30.2196 114.576 29.9882 114.585 29.7568 114.591C29.5344 114.6 29.312 114.606 29.0896 114.609C28.8221 114.615 28.5516 114.618 28.2811 114.621C18.4984 114.615 15.0272 109.881 15.0272 105.828C15.0272 101.294 19.1807 96.4155 28.3022 96.4155C28.5967 96.4155 28.8912 96.4186 29.1858 96.4276C29.4593 96.4336 29.7327 96.4426 30.0062 96.4576C30.0423 96.4576 30.0814 96.4606 30.1174 96.4636C30.3969 96.4756 30.6765 96.4937 30.956 96.5147C31.2204 96.5327 31.4849 96.5568 31.7494 96.5808C31.8365 96.5898 31.9267 96.5988 32.0139 96.6078C32.2002 96.6259 32.3865 96.6469 32.5729 96.6679C32.6901 96.6799 32.8103 96.695 32.9275 96.713C33.1078 96.734 33.2912 96.758 33.4715 96.7851C33.5406 96.7911 33.6128 96.8001 33.6819 96.8121C33.8742 96.8392 34.0636 96.8692 34.2559 96.8992C34.3912 96.9203 34.5264 96.9413 34.6617 96.9653C34.9081 97.0044 35.1545 97.0494 35.398 97.0945C35.6955 97.1486 35.9901 97.2057 36.2876 97.2688C36.5851 97.3288 36.8827 97.3919 37.1802 97.461C37.4056 97.5121 37.631 97.5632 37.8564 97.6173C37.9015 97.6293 37.9496 97.6383 37.9947 97.6503C38.148 97.6894 38.3012 97.7254 38.4575 97.7675C39.2389 97.9627 40.0203 98.179 40.8018 98.4134C41.0302 98.4825 41.2616 98.5546 41.49 98.6267C41.5651 98.6477 41.6403 98.6717 41.7154 98.6988C41.9649 98.7769 42.2143 98.858 42.4638 98.9391C42.6711 99.0082 42.8815 99.0773 43.0889 99.1524C43.2572 99.2095 43.4255 99.2666 43.5968 99.3267C44.0657 99.4919 44.5345 99.6631 45.0064 99.8404C45.1957 99.9125 45.388 99.9846 45.5804 100.06C45.8749 100.171 46.1695 100.285 46.464 100.405C46.6834 100.489 46.9058 100.579 47.1252 100.673C47.2334 100.715 47.3386 100.76 47.4468 100.805C47.576 100.856 47.7052 100.91 47.8345 100.964C48.0539 101.057 48.2733 101.15 48.4957 101.243C48.5227 101.255 48.5528 101.267 48.5798 101.279C48.8052 101.376 49.0276 101.475 49.253 101.574C49.7279 101.778 50.2027 101.991 50.6776 102.211C51.3057 102.496 51.9339 102.791 52.565 103.094C52.8626 103.235 53.1631 103.382 53.4636 103.527C54.0828 103.83 54.7049 104.139 55.327 104.458C55.5584 104.575 55.7868 104.692 56.0183 104.809C56.403 105.008 56.7907 105.209 57.1754 105.41C57.0491 105.503 56.9199 105.594 56.7937 105.684C56.6073 105.819 56.421 105.951 56.2347 106.08Z" fill="url(#paint0_linear_592_988)"/>
<path d="M91.9963 46.7913C91.9722 47.1848 91.9512 47.5784 91.9181 47.9689C91.7739 49.8165 91.0255 51.559 90.4605 53.3105C90.19 54.1457 89.9616 55.0439 89.7302 55.9602C89.3094 57.6426 88.8736 59.3791 88.1343 60.9022C88.0171 60.743 87.8638 60.6168 87.6955 60.5297C87.2417 60.2924 86.6707 60.3495 86.3581 60.9353C86.2529 61.1366 86.1688 61.3379 86.1086 61.5422V61.5452C86.0035 61.5391 85.8983 61.5301 85.7931 61.5211C85.195 61.4761 84.5969 61.431 84.0018 61.3769C83.2535 61.3108 82.5081 61.2387 81.7658 61.1606C80.6898 61.0434 79.6259 60.9143 78.571 60.7701C78.2314 60.722 77.8948 60.6739 77.5582 60.6259C77.5552 60.6229 77.5492 60.6228 77.5462 60.6228C77.5402 60.6228 77.5341 60.6198 77.5251 60.6198C77.5221 60.6198 77.5221 60.6198 77.5191 60.6198C77.1314 60.5628 76.7467 60.5027 76.365 60.4426C75.9984 60.3855 75.6377 60.3254 75.2771 60.2623C75.238 60.2593 75.2019 60.2533 75.1659 60.2443C74.8984 60.1992 74.6339 60.1542 74.3724 60.1061C74.117 60.0611 73.8615 60.016 73.609 59.9649C72.488 59.7576 71.385 59.5323 70.3001 59.289C69.9815 59.2199 69.6659 59.1478 69.3504 59.0727C69.2211 59.0426 69.0979 59.0126 68.9747 58.9825C68.6922 58.9164 68.4097 58.8473 68.1301 58.7752C67.9859 58.7422 67.8416 58.7061 67.7004 58.6671C67.3157 58.5709 66.931 58.4688 66.5523 58.3667C66.4411 58.3366 66.3329 58.3066 66.2247 58.2765C65.9602 58.2044 65.6957 58.1293 65.4343 58.0542C65.0917 57.9581 64.752 57.8559 64.4124 57.7538C63.063 57.3482 61.7556 56.9126 60.4903 56.4499C32.8554 46.3076 12.0067 28.258 2.03766 18.401L12.6048 7.72092C21.7082 16.7217 40.7026 33.188 65.6687 42.348C66.6004 42.6905 67.5681 43.0119 68.5719 43.3183C68.7853 43.3844 68.9987 43.4475 69.2121 43.5076C69.5397 43.6037 69.8703 43.6969 70.2009 43.79C70.7118 43.9312 71.2287 44.0664 71.7517 44.1956C72.4459 44.3698 73.1492 44.5321 73.8675 44.6883C74.0599 44.7303 74.2552 44.7724 74.4506 44.8145C74.9765 44.9256 75.5115 45.0338 76.0495 45.1359C76.5874 45.2381 77.1314 45.3372 77.6814 45.4273C77.9729 45.4814 78.2675 45.5295 78.562 45.5745H78.565C79.1 45.6587 79.6379 45.7428 80.1789 45.8179C80.75 45.899 81.324 45.9771 81.904 46.0462C82.1805 46.0793 82.457 46.1153 82.7335 46.1453C83.0461 46.1814 83.3587 46.2174 83.6712 46.2505C84.1611 46.3016 84.657 46.3496 85.1529 46.3947C85.6188 46.4368 86.0846 46.4758 86.5534 46.5119C86.7007 46.5239 86.851 46.5359 86.9983 46.5449C87.2778 46.5659 87.5573 46.584 87.8368 46.602C88.0261 46.614 88.2185 46.626 88.4078 46.638C88.7685 46.6591 89.1291 46.6801 89.4898 46.6951C89.9045 46.7161 90.3223 46.7342 90.74 46.7492C91.1578 46.7672 91.5755 46.7792 91.9963 46.7913Z" fill="url(#paint1_linear_592_988)"/>
<path d="M126.658 50.1891C126.751 52.6736 127.662 55.825 117.771 59.5353C117.768 59.5353 117.768 59.5353 117.765 59.5383C117.284 59.6404 116.8 59.7396 116.313 59.8327C115.823 59.9289 115.334 60.022 114.838 60.1121C114.345 60.2022 113.846 60.2894 113.344 60.3705C112.857 60.4516 112.367 60.5297 111.874 60.6018C111.808 60.6138 111.742 60.6228 111.676 60.6319C111.279 60.6919 110.879 60.749 110.48 60.8031C110.347 60.8211 110.218 60.8391 110.086 60.8542C109.647 60.9142 109.208 60.9713 108.77 61.0224C108.298 61.0795 107.823 61.1336 107.348 61.1846C107.27 61.1936 107.189 61.2027 107.111 61.2087C106.63 61.2627 106.146 61.3078 105.662 61.3529C105.656 61.3559 105.647 61.3559 105.641 61.3559C105.085 61.4069 104.526 61.455 103.964 61.4971C103.071 63.5159 102.185 65.5047 101.325 67.4124C101.31 67.4455 101.295 67.4755 101.28 67.5086C101.265 67.5446 101.25 67.5777 101.232 67.6137C101.211 67.6648 101.187 67.7189 101.163 67.77C101.145 67.812 101.124 67.8541 101.106 67.8991C101.073 67.9712 101.04 68.0403 101.01 68.1124C100.895 68.3618 100.784 68.6111 100.673 68.8575C100.348 69.5845 100.018 70.3085 99.6842 71.0356H99.6812C98.9569 71.0987 98.2236 71.1287 97.4812 71.1287C92.7567 71.1287 88.3537 69.8549 84.6691 67.6618C84.7412 67.5116 84.7262 67.3944 84.636 67.3073C85.4445 65.5318 86.31 63.6181 87.2057 61.6233C86.839 61.6022 86.4753 61.5692 86.1087 61.5421V61.5451C86.0035 61.5391 85.8983 61.5301 85.7931 61.5211C85.195 61.476 84.5969 61.431 84.0019 61.3769C83.2535 61.3108 82.5082 61.2387 81.7658 61.1606C80.6899 61.0464 79.6259 60.9173 78.571 60.77C78.2314 60.722 77.8948 60.6739 77.5582 60.6258C77.5552 60.6228 77.5492 60.6228 77.5462 60.6228C77.5402 60.6228 77.5342 60.6198 77.5251 60.6198C77.5221 60.6198 77.5221 60.6198 77.5191 60.6198C70.4203 58.8984 70.0777 56.3358 70.4323 55.1521C71.6345 51.1054 71.6285 47.1728 78.562 45.5745H78.565C79.1 45.6586 79.638 45.7428 80.1789 45.8179C80.75 45.899 81.324 45.9771 81.9041 46.0462C82.1806 46.0792 82.4571 46.1153 82.7336 46.1453C83.0461 46.1814 83.3587 46.2174 83.6713 46.2505C84.1611 46.3016 84.657 46.3496 85.1529 46.3947C85.6188 46.4367 86.0846 46.4758 86.5535 46.5119C86.7007 46.5239 86.851 46.5359 86.9983 46.5449C87.2778 46.5659 87.5573 46.584 87.8368 46.602C88.0261 46.614 88.2185 46.626 88.4078 46.638C88.7685 46.6591 89.1291 46.6801 89.4898 46.6951C89.9045 46.7161 90.3223 46.7342 90.74 46.7492C91.1578 46.7672 91.5756 46.7792 91.9963 46.7913C92.5854 46.8063 93.1744 46.8183 93.7665 46.8243C94.058 46.1604 94.3496 45.5024 94.6351 44.8505C94.6651 44.7844 94.6952 44.7153 94.7222 44.6462C94.8455 44.3518 94.9717 44.0544 95.0979 43.763C95.4466 42.9368 95.7952 42.1196 96.1438 41.3055C96.4323 40.6295 96.7209 39.9566 97.0094 39.2866C97.0394 39.2235 97.0635 39.1634 97.0905 39.1004C97.2498 38.7368 97.4091 38.3733 97.5654 38.0098C97.7247 37.6463 97.8809 37.2858 98.0402 36.9253C98.6113 35.6244 99.1853 34.3386 99.7624 33.0768C99.9667 32.6292 100.171 32.1846 100.375 31.7429C100.823 30.7816 101.274 29.8322 101.728 28.8979C101.77 28.8108 101.812 28.7237 101.851 28.6395C101.863 28.6155 101.872 28.5945 101.881 28.5735C107.159 29.4867 111.811 32.0073 115.204 35.5553C115.18 35.6064 115.156 35.6545 115.135 35.7025C114.988 36.039 114.916 36.3154 114.907 36.5437C113.84 38.9501 112.478 42.0656 110.958 45.5505C111.637 45.4393 112.307 45.3222 112.971 45.196V45.193C113.182 45.1539 113.392 45.1119 113.602 45.0728C113.84 45.0247 114.08 44.9767 114.318 44.9286C114.738 44.8415 115.159 44.7514 115.574 44.6612C115.902 44.5861 116.226 44.511 116.548 44.4329C116.746 44.3878 116.941 44.3428 117.134 44.2947C117.143 44.2917 117.152 44.2887 117.158 44.2887C117.416 44.2256 117.669 44.1625 117.921 44.0964C117.981 44.0814 118.038 44.0664 118.099 44.0514C118.099 44.0514 118.099 44.0514 118.099 44.0484C118.808 43.8651 119.505 43.6698 120.19 43.4715C120.208 43.4655 120.226 43.4595 120.247 43.4535C120.599 43.3484 120.948 43.2432 121.293 43.1351C121.639 43.0269 121.982 42.9158 122.318 42.8046C122.339 42.7986 122.357 42.7896 122.375 42.7866C122.694 42.6814 123.012 42.5703 123.325 42.4591C123.659 42.345 123.989 42.2248 124.314 42.1016C125.125 41.7982 125.913 41.4827 126.682 41.1523C127.145 40.954 127.599 40.7497 128.046 40.5394C128.2 40.4673 128.353 40.3952 128.503 40.3231H128.506C132.57 41.5278 126.568 47.8247 126.658 50.1891Z" fill="url(#paint2_radial_592_988)"/>
<path d="M117.05 31.8751C117.029 31.9142 117.008 31.9563 116.983 32.0013C116.602 32.7584 115.874 34.3597 114.907 36.5438C113.84 38.9502 112.478 42.0656 110.958 45.5505C108.818 50.4565 106.362 56.0894 103.964 61.4971C103.071 63.516 102.185 65.5048 101.325 67.4125C101.31 67.4455 101.295 67.4756 101.28 67.5086C101.265 67.5447 101.25 67.5777 101.232 67.6138C101.211 67.6648 101.187 67.7189 101.163 67.77C101.145 67.812 101.124 67.8541 101.106 67.8992C101.073 67.9713 101.04 68.0404 101.01 68.1125C100.895 68.3618 100.784 68.6112 100.673 68.8575C100.336 69.5996 100.006 70.3266 99.6812 71.0356C99.591 71.2279 99.5039 71.4171 99.4197 71.6064C99.2574 71.9579 99.0951 72.3064 98.9358 72.6489C98.8246 72.8952 98.7104 73.1386 98.5992 73.3789C97.6555 75.4098 96.787 77.2394 96.0266 78.7746C95.2993 80.2376 94.6741 81.4333 94.1782 82.2865C94.1752 82.2925 94.1722 82.2956 94.1692 82.3016H94.1662C92.0925 81.6466 90.0307 80.9617 87.966 80.2797C85.6458 79.5136 83.2805 78.8527 80.9814 78.0295C80.5426 77.8703 80.1098 77.699 79.677 77.5218H79.674C79.686 77.5038 79.695 77.4827 79.7071 77.4647C79.7251 77.4347 79.7431 77.4016 79.7612 77.3686C79.9986 76.954 80.2841 76.4222 80.6087 75.7883C80.6117 75.7793 80.6177 75.7703 80.6207 75.7613C80.6237 75.7583 80.6267 75.7523 80.6297 75.7463C81.354 74.3223 82.2797 72.3935 83.3376 70.1193C83.7494 69.2331 84.1852 68.2897 84.636 67.3073C85.4444 65.5318 86.31 63.6181 87.2056 61.6233C87.3679 61.2598 87.5302 60.8962 87.6955 60.5297C88.3627 59.0366 89.045 57.5074 89.7302 55.9603C91.0826 52.9169 92.4501 49.8135 93.7665 46.8243C94.058 46.1604 94.3495 45.5024 94.6351 44.8505C94.6651 44.7844 94.6952 44.7153 94.7222 44.6462C97.7727 37.7214 100.424 31.6919 101.728 28.8979C101.77 28.8108 101.812 28.7237 101.851 28.6396C101.863 28.6155 101.872 28.5945 101.881 28.5735C101.902 28.5344 101.917 28.4984 101.935 28.4623C101.986 28.3572 102.037 28.252 102.089 28.1439C102.113 28.0958 102.137 28.0477 102.158 28.0027H102.161C107.051 29.5709 112.021 30.8417 117.05 31.8751Z" fill="white"/>
<path d="M96.0266 78.7746C95.2992 80.2376 94.6741 81.4333 94.1782 82.2865C94.1752 82.2926 94.1722 82.2956 94.1692 82.3016C93.9558 82.7102 93.7394 83.1157 93.52 83.5243C93.2465 84.038 92.967 84.5488 92.6875 85.0595C92.417 85.5582 92.1405 86.0509 91.864 86.5466C91.837 86.5916 91.8099 86.6397 91.7829 86.6908C91.5214 87.1534 91.2569 87.6191 90.9895 88.0788C90.9834 88.0938 90.9744 88.1088 90.9654 88.1238C90.7039 88.5775 90.4425 89.0281 90.175 89.4787C90.1269 89.5598 90.0788 89.638 90.0307 89.7221C89.7662 90.1667 89.5018 90.6113 89.2313 91.053C89.2193 91.071 89.2072 91.092 89.1952 91.1131C88.9067 91.5877 88.6122 92.0624 88.3206 92.5311C88.3086 92.5491 88.2966 92.5671 88.2876 92.5821C87.6715 93.5645 87.0433 94.5379 86.4032 95.4993C86.2168 95.7787 86.0305 96.0581 85.8442 96.3344C85.6548 96.6108 85.4655 96.8902 85.2761 97.1636C85.1469 97.3529 85.0147 97.5422 84.8824 97.7284C84.4406 98.3653 83.9898 98.9932 83.533 99.6181C83.4338 99.7563 83.3346 99.8915 83.2324 100.027C83.0491 100.279 82.8628 100.528 82.6734 100.778C82.4059 101.135 82.1324 101.493 81.859 101.844C82.0122 101.934 82.1655 102.022 82.3158 102.106C82.2406 102.145 82.1685 102.184 82.0964 102.223C79.7071 103.479 78.0421 104.452 77.6784 104.918C79.3434 105.879 81.0174 106.834 82.6975 107.781C82.3068 109.487 81.7988 111.124 81.2489 112.506C80.5275 114.324 79.5688 115.973 78.4268 117.427V117.43C78.3757 117.496 78.3246 117.56 78.2735 117.626C76.0194 116.391 73.558 115.006 70.9883 113.555H70.9853C70.8831 113.651 70.7839 113.738 70.6818 113.825C69.6148 114.757 68.5299 115.643 67.4299 116.487C67.2255 116.646 67.0211 116.802 66.8138 116.956C66.5613 117.145 66.3089 117.334 66.0534 117.517C65.8099 117.698 65.5605 117.875 65.3141 118.052C65.305 118.058 65.296 118.064 65.29 118.067C65.0345 118.247 64.7791 118.428 64.5206 118.602C64.3012 118.752 64.0818 118.902 63.8624 119.05C63.3154 119.413 62.7654 119.768 62.2094 120.116C61.9991 120.245 61.7887 120.374 61.5783 120.504C61.425 120.597 61.2687 120.69 61.1155 120.783C60.9412 120.888 60.7638 120.993 60.5865 121.096C60.322 121.252 60.0545 121.405 59.7871 121.555C59.5166 121.708 59.2431 121.859 58.9696 122.009C57.1753 122.988 55.336 123.874 53.4546 124.665C53.4516 124.668 53.4486 124.668 53.4456 124.668C48.661 125.857 47.6632 123.514 45.2738 121.459C44.0356 120.399 36.1493 118.371 37.9496 113.732C38.0878 113.708 38.2261 113.681 38.3643 113.654C38.6138 113.606 38.8632 113.555 39.1127 113.504C39.3982 113.444 39.6777 113.384 39.9602 113.318L40.2307 113.254C40.4772 113.197 40.7266 113.137 40.9731 113.074C41.2165 113.014 41.4599 112.951 41.7034 112.885C41.8056 112.858 41.9047 112.831 42.0069 112.801C42.4908 112.669 42.9717 112.527 43.4525 112.377C43.678 112.308 43.9034 112.236 44.1258 112.161C44.1348 112.158 44.1408 112.155 44.1498 112.152C44.3512 112.089 44.5525 112.02 44.7509 111.951C44.8531 111.915 44.9553 111.881 45.0574 111.845C45.4481 111.707 45.8358 111.563 46.2205 111.416C46.3588 111.365 46.497 111.311 46.6323 111.257C46.7735 111.199 46.9148 111.145 47.053 111.088C47.2033 111.025 47.3536 110.965 47.5039 110.902C47.585 110.869 47.6632 110.836 47.7413 110.8C47.9066 110.731 48.0719 110.662 48.2342 110.587C48.5828 110.436 48.9284 110.28 49.2711 110.115C49.4364 110.04 49.6017 109.962 49.767 109.881C49.806 109.863 49.8451 109.845 49.8842 109.824C50.1276 109.706 50.371 109.586 50.6115 109.463C50.6385 109.448 50.6656 109.433 50.6926 109.421C50.903 109.313 51.1134 109.202 51.3238 109.091C51.4109 109.045 51.5011 108.997 51.5882 108.949C52.1082 108.667 52.6251 108.376 53.136 108.075C53.6019 107.799 54.0617 107.516 54.5215 107.219C54.6658 107.132 54.8101 107.039 54.9543 106.942C55.1136 106.84 55.2729 106.735 55.4322 106.627C55.5073 106.579 55.5825 106.528 55.6576 106.477C55.8499 106.348 56.0423 106.215 56.2346 106.08C56.421 105.951 56.6073 105.819 56.7937 105.684C53.4727 103.914 50.2719 102.289 47.3927 100.982C47.4107 100.922 47.4287 100.862 47.4468 100.805C47.4468 100.802 47.4468 100.802 47.4468 100.802C47.603 100.3 47.7774 99.8014 47.9727 99.3057C49.1989 96.2143 50.918 93.5525 52.9828 91.4796C56.8237 93.2431 60.6436 95.2439 64.4846 97.3679C64.6679 97.1426 64.8542 96.9143 65.0376 96.6829C65.6507 95.9169 65.3141 94.2976 64.6468 92.3748C64.6438 92.3688 64.6438 92.3598 64.6408 92.3538C64.8692 92.474 65.1007 92.5972 65.3291 92.7173C65.6627 92.8946 65.9963 93.0778 66.3299 93.2581C66.369 93.2791 66.411 93.3001 66.4501 93.3212C67.1474 93.6937 67.8506 94.0662 68.5509 94.4448C68.7282 94.2255 68.9116 94.0031 69.0889 93.7778C69.3203 93.4894 69.5517 93.195 69.7831 92.9036C70.2339 92.3208 70.6818 91.7319 71.1235 91.1311C71.5684 90.5332 72.0072 89.9234 72.4369 89.3075C72.6563 88.9981 72.8697 88.6886 73.0831 88.3762C73.2694 88.1058 73.4528 87.8324 73.6361 87.559C73.8916 87.1805 74.141 86.8019 74.3905 86.4204C74.6369 86.0419 74.8833 85.6573 75.1268 85.2728C75.3282 84.9603 75.5265 84.6449 75.7219 84.3294C76.0014 83.8818 76.2779 83.4312 76.5484 82.9775C76.7106 82.7102 76.8729 82.4428 77.0322 82.1724C77.7956 80.8926 78.5379 79.5887 79.2653 78.2699C79.4035 78.0235 79.5388 77.7742 79.674 77.5218C79.686 77.5038 79.695 77.4827 79.7071 77.4647C79.7251 77.4347 79.7431 77.4016 79.7612 77.3686C80.0256 76.8819 80.2901 76.3892 80.5486 75.8965C80.5726 75.8514 80.5967 75.8064 80.6207 75.7613C80.6237 75.7583 80.6267 75.7523 80.6297 75.7463C81.354 74.3223 82.2797 72.3935 83.3376 70.1193C83.3977 70.1013 83.4518 70.0863 83.5089 70.0712H83.5119C84.4526 69.8129 85.1559 69.8009 85.5226 70.1163C86.2078 70.7081 90.9534 74.6738 95.9935 78.7445V78.7475C96.0055 78.7565 96.0145 78.7656 96.0266 78.7746Z" fill="url(#paint3_radial_592_988)"/>
<path d="M94.2564 108.949C91.7048 113.275 89.1231 117.596 86.292 121.732C86.283 121.729 86.271 121.723 86.2619 121.717C84.1942 120.804 81.4382 119.362 78.2735 117.626C76.0194 116.391 73.558 115.006 70.9883 113.555H70.9853C66.402 110.971 61.4791 108.183 56.7937 105.684C53.4727 103.914 50.2719 102.289 47.3927 100.982C45.3039 100.03 43.3864 99.2486 41.7154 98.6988C41.6403 98.6718 41.5651 98.6477 41.49 98.6267C41.2556 98.5486 41.0272 98.4795 40.8018 98.4134C41.6102 93.5104 43.726 88.8328 45.2498 84.035C45.2588 84.038 45.2648 84.038 45.2738 84.041C48.126 84.6088 52.4719 86.3874 57.4278 88.7547C57.4639 88.7727 57.4999 88.7908 57.539 88.8088C57.5931 88.8328 57.6472 88.8599 57.7013 88.8869C59.9223 89.9534 62.2666 91.1341 64.6469 92.3748C65.2059 92.6663 65.7679 92.9607 66.3299 93.2581C66.369 93.2791 66.4111 93.3002 66.4501 93.3212C67.1474 93.6937 67.8507 94.0662 68.5509 94.4448C73.1883 96.9353 77.8167 99.537 81.859 101.844C82.0123 101.934 82.1655 102.022 82.3158 102.106C87.975 105.344 92.4201 107.967 94.037 108.832C94.055 108.844 94.0731 108.853 94.0911 108.862C94.1512 108.895 94.2053 108.922 94.2564 108.949Z" fill="white"/>
</g>
<g clip-path="url(#clip1_592_988)">
<path fill-rule="evenodd" clip-rule="evenodd" d="M275.125 113.567C275.023 113.168 274.798 112.813 274.481 112.551C274.165 112.289 273.773 112.134 273.363 112.109H240.508L270.51 64.4329C271.198 63.3397 271.764 62.3982 272.21 61.6082C272.634 60.872 272.992 60.1 273.28 59.3011C273.543 58.553 273.726 57.7792 273.826 56.9927C273.936 56.0557 273.987 55.1128 273.978 54.1694V51.1935C274.06 49.8909 273.636 48.6072 272.795 47.6092C272.305 47.1518 271.725 46.802 271.092 46.5825C270.459 46.363 269.787 46.2785 269.119 46.3346H225.687C225.253 46.322 224.822 46.4269 224.442 46.6382C224.053 46.8937 223.756 47.2661 223.592 47.7015C223.335 48.3436 223.171 49.0192 223.106 49.7077C222.995 50.726 222.944 51.75 222.954 52.7744C222.945 53.7485 222.996 54.7222 223.106 55.69C223.17 56.3583 223.334 57.0133 223.592 57.6333C223.766 58.0647 224.061 58.4363 224.442 58.7033C224.815 58.9345 225.248 59.0507 225.687 59.0376H255.932L225.439 107.381C224.75 108.515 224.173 109.487 223.708 110.297C223.284 111.012 222.926 111.764 222.638 112.543C222.403 113.204 222.23 113.885 222.122 114.578C222.017 115.312 221.966 116.053 221.971 116.795V119.47C221.867 120.943 222.334 122.4 223.276 123.539C223.764 124.022 224.35 124.397 224.994 124.638C225.638 124.879 226.325 124.981 227.011 124.936H273.351C273.708 124.938 274.057 124.832 274.353 124.631C274.707 124.361 274.972 123.991 275.113 123.569C275.345 122.933 275.498 122.27 275.567 121.595C275.679 120.607 275.729 119.614 275.72 118.619C275.819 116.913 275.618 115.203 275.125 113.567V113.567ZM333.21 49.3105C333.023 48.6573 332.725 48.0411 332.33 47.4888C331.884 46.9816 331.288 46.6302 330.628 46.4857C329.544 46.2235 328.434 46.0809 327.318 46.0604C325.901 45.9998 323.998 45.9695 321.61 45.9695C319.545 45.9695 317.885 45.9998 316.629 46.0604C315.635 46.0824 314.647 46.2252 313.687 46.4857C313.083 46.6415 312.541 46.9814 312.138 47.4581C311.77 47.9677 311.483 48.5311 311.288 49.1285L287.051 118.848C286.647 119.952 286.342 121.09 286.14 122.248C286.061 122.588 286.058 122.941 286.132 123.282C286.205 123.624 286.353 123.945 286.565 124.222C287.162 124.773 287.94 125.086 288.752 125.103C290.205 125.243 291.664 125.304 293.124 125.285C294.865 125.285 296.272 125.245 297.345 125.164C298.192 125.125 299.03 124.973 299.835 124.709C300.345 124.544 300.79 124.225 301.111 123.797C301.398 123.358 301.614 122.876 301.749 122.37L306.728 107.005H336.246L341.529 122.795C341.657 123.252 341.862 123.683 342.136 124.071C342.471 124.452 342.917 124.717 343.412 124.829C344.276 125.049 345.162 125.172 346.053 125.194C347.207 125.255 348.816 125.285 350.881 125.285C352.865 125.285 354.426 125.234 355.562 125.133C356.417 125.133 357.248 124.856 357.931 124.344C358.163 124.09 358.329 123.782 358.414 123.448C358.499 123.115 358.499 122.765 358.417 122.431C358.211 121.253 357.906 120.095 357.506 118.968L333.21 49.3105ZM332.541 94.7394H310.253L321.367 61.3354H321.423L332.541 94.7394ZM432.716 121.189C432.512 120.482 432.107 119.358 431.501 117.818L424.881 102.331C424.183 100.619 423.392 98.9465 422.512 97.3206C421.763 95.9353 420.899 94.6147 419.931 93.3725C419.079 92.2796 418.101 91.292 417.017 90.4301C415.991 89.6247 414.881 88.9323 413.706 88.3651C416.003 87.6581 418.19 86.6359 420.205 85.3278C422.044 84.1321 423.666 82.6329 425.002 80.8942C426.319 79.1505 427.315 77.187 427.945 75.095C428.638 72.7594 428.976 70.3329 428.948 67.8969C428.998 65.0702 428.524 62.2587 427.55 59.6047C426.659 57.2587 425.283 55.1271 423.511 53.3495C421.657 51.5267 419.472 50.0741 417.074 49.0696C414.346 47.9229 411.476 47.147 408.541 46.7626C407.447 46.6413 406.232 46.5401 404.897 46.459C403.561 46.3779 401.861 46.3355 399.797 46.3319H379.452C378.22 46.2947 377.019 46.7166 376.081 47.5156C375.587 48.0204 375.208 48.627 374.972 49.2932C374.736 49.9594 374.648 50.6691 374.715 51.3728V122.735C374.711 123.129 374.84 123.514 375.08 123.827C375.416 124.213 375.86 124.488 376.354 124.616C377.157 124.859 377.981 125.022 378.815 125.103C381.39 125.346 383.983 125.346 386.558 125.103C387.382 125.021 388.196 124.858 388.988 124.616C389.488 124.481 389.941 124.208 390.293 123.827C390.553 123.522 390.695 123.135 390.694 122.735V92.7934H395.675C397.21 92.7639 398.736 93.0319 400.169 93.5825C401.466 94.1097 402.635 94.9066 403.601 95.9203C404.677 97.0738 405.587 98.372 406.304 99.7775C407.112 101.317 407.942 103.078 408.793 105.06L415.838 122.613C415.979 123.055 416.184 123.475 416.445 123.858C416.767 124.258 417.201 124.554 417.691 124.709C418.466 124.968 419.273 125.121 420.09 125.164C421.101 125.244 422.457 125.284 424.159 125.285C426.183 125.285 427.783 125.245 428.957 125.164C429.863 125.127 430.76 124.985 431.632 124.738C432.097 124.636 432.507 124.366 432.785 123.98C432.957 123.631 433.041 123.245 433.028 122.856C432.997 122.29 432.892 121.729 432.716 121.19V121.189ZM411.584 74.1508C411.023 75.5181 410.15 76.7347 409.033 77.703C407.789 78.7558 406.342 79.5415 404.782 80.0114C402.852 80.5903 400.844 80.8669 398.83 80.8313H390.692V58.5388H397.859C399.288 58.5211 400.717 58.5818 402.139 58.7206C403.069 58.8247 403.992 58.9873 404.902 59.2075C407.226 59.7033 409.282 61.0452 410.672 62.9724C411.895 64.934 412.509 67.2151 412.433 69.5259C412.456 71.1078 412.166 72.6786 411.58 74.1481L411.584 74.1508ZM497.394 115.722C497.326 115.068 497.173 114.424 496.94 113.809C496.787 113.393 496.524 113.026 496.18 112.747C495.891 112.529 495.54 112.412 495.178 112.412H466.872V90.2415H490.619C490.976 90.2443 491.325 90.1384 491.621 89.9379C491.965 89.6837 492.228 89.336 492.38 88.9362C492.615 88.3421 492.768 87.719 492.836 87.0838C493.038 85.1556 493.038 83.2115 492.836 81.2833C492.77 80.6382 492.617 80.0052 492.38 79.4015C492.223 78.9963 491.961 78.6401 491.621 78.3691C491.332 78.1514 490.98 78.034 490.619 78.0347H466.872V58.8424H494.931C495.283 58.8466 495.627 58.729 495.903 58.5094C496.231 58.2217 496.482 57.856 496.632 57.4461C496.866 56.8304 497.018 56.1871 497.087 55.5322C497.198 54.5747 497.249 53.6112 497.239 52.6474C497.25 51.6434 497.2 50.6398 497.087 49.6421C497.016 48.9781 496.863 48.3254 496.632 47.6988C496.493 47.2834 496.24 46.9152 495.903 46.6356C495.62 46.4333 495.279 46.3268 494.931 46.3319H455.702C454.471 46.2947 453.27 46.7166 452.332 47.5156C451.837 48.0204 451.459 48.627 451.222 49.2932C450.986 49.9594 450.898 50.6691 450.965 51.3728V119.879C450.898 120.583 450.986 121.293 451.222 121.959C451.458 122.625 451.837 123.232 452.332 123.736C453.269 124.536 454.471 124.958 455.702 124.921H495.179C495.541 124.923 495.893 124.805 496.181 124.587C496.527 124.306 496.79 123.936 496.941 123.517C497.174 122.902 497.327 122.259 497.396 121.605C497.597 119.648 497.595 117.676 497.39 115.72L497.394 115.722ZM560.885 115.175C560.818 114.49 560.665 113.816 560.431 113.169C560.284 112.741 560.021 112.363 559.671 112.075C559.362 111.852 558.989 111.735 558.608 111.742H533.885V48.5186C533.887 48.1188 533.747 47.7312 533.49 47.4246C533.137 47.045 532.685 46.7717 532.185 46.6356C531.393 46.3949 530.579 46.2323 529.755 46.15C527.18 45.9057 524.588 45.9057 522.013 46.15C521.179 46.2306 520.355 46.3933 519.553 46.6356C519.052 46.7714 518.6 47.0447 518.246 47.4246C517.987 47.7302 517.845 48.1179 517.845 48.5186V119.879C517.778 120.583 517.866 121.293 518.102 121.959C518.338 122.625 518.717 123.232 519.212 123.736C520.15 124.536 521.351 124.958 522.582 124.921H558.597C558.983 124.928 559.36 124.799 559.66 124.556C560.015 124.237 560.277 123.828 560.42 123.373C560.649 122.704 560.802 122.011 560.875 121.308C561.08 119.268 561.083 117.212 560.881 115.171L560.885 115.175ZM616.754 49.3105C616.568 48.657 616.27 48.0407 615.873 47.4888C615.428 46.9814 614.832 46.6298 614.173 46.4857C613.089 46.2236 611.979 46.081 610.863 46.0604C609.445 45.9998 607.543 45.9695 605.155 45.9695C603.09 45.9695 601.429 45.9998 600.174 46.0604C599.18 46.0824 598.192 46.2252 597.232 46.4857C596.627 46.6415 596.086 46.9814 595.683 47.4581C595.315 47.9677 595.028 48.5311 594.832 49.1285L570.589 118.848C570.185 119.952 569.88 121.09 569.678 122.248C569.599 122.588 569.596 122.941 569.67 123.282C569.743 123.624 569.891 123.945 570.103 124.222C570.7 124.773 571.478 125.086 572.29 125.103C573.743 125.243 575.202 125.304 576.662 125.285C578.403 125.285 579.81 125.245 580.883 125.164C581.73 125.125 582.567 124.973 583.373 124.709C583.882 124.544 584.328 124.225 584.649 123.797C584.936 123.358 585.151 122.876 585.286 122.37L590.266 107.005H619.782L625.067 122.795C625.195 123.252 625.4 123.683 625.674 124.071C626.009 124.452 626.455 124.717 626.95 124.829C627.814 125.049 628.7 125.172 629.591 125.194C630.746 125.255 632.355 125.285 634.419 125.285C636.403 125.285 637.964 125.234 639.1 125.133C639.954 125.133 640.785 124.856 641.469 124.344C641.701 124.09 641.867 123.782 641.952 123.448C642.036 123.115 642.037 122.765 641.954 122.431C641.749 121.253 641.444 120.095 641.044 118.968L616.754 49.3105ZM616.086 94.7394H593.793L604.907 61.3354H604.968L616.086 94.7394Z" fill="white"/>
</g>
<defs>
<linearGradient id="paint0_linear_592_988" x1="177.809" y1="97.4358" x2="114.798" y2="122.431" gradientUnits="userSpaceOnUse">
<stop stop-color="white"/>
<stop offset="1" stop-color="white"/>
</linearGradient>
<linearGradient id="paint1_linear_592_988" x1="6.88483" y1="14.8174" x2="68.25" y2="58.222" gradientUnits="userSpaceOnUse">
<stop stop-color="white"/>
<stop offset="1" stop-color="white" stop-opacity="0"/>
</linearGradient>
<radialGradient id="paint2_radial_592_988" cx="0" cy="0" r="1" gradientUnits="userSpaceOnUse" gradientTransform="translate(100.015 50.4676) rotate(11.6049) scale(24.4117 24.4039)">
<stop stop-color="#0D021A"/>
<stop offset="1" stop-color="#040106" stop-opacity="0"/>
</radialGradient>
<radialGradient id="paint3_radial_592_988" cx="0" cy="0" r="1" gradientUnits="userSpaceOnUse" gradientTransform="translate(70.6119 102.97) rotate(136.676) scale(24.4378 24.4441)">
<stop stop-color="#08020F"/>
<stop offset="0.9375" stop-opacity="0"/>
</radialGradient>
<clipPath id="clip0_592_988">
<rect width="182" height="135.303" fill="white"/>
</clipPath>
<clipPath id="clip1_592_988">
<rect width="420" height="79.3278" fill="white" transform="translate(222 45.9749)"/>
</clipPath>
</defs>
</svg>
