<svg width="20" height="21" viewBox="0 0 20 21" fill="none" xmlns="http://www.w3.org/2000/svg">
<path d="M10 18.5001C14.4183 18.5001 18 14.9184 18 10.5001C18 6.08184 14.4183 2.50012 10 2.50012C5.58172 2.50012 2 6.08184 2 10.5001C2 14.9184 5.58172 18.5001 10 18.5001Z" stroke="white"/>
<path d="M12.3834 9.00499C12.4021 8.90856 12.4116 8.80803 12.4098 8.7025C12.3853 7.42658 11.1985 6.84207 10.1509 6.3267C9.90438 6.20525 9.6683 6.08834 9.45133 5.96689L9.41812 5.94824H9.13019H8.40421V10.2445C6.859 10.7426 5.35974 11.2985 5.33608 12.5485C5.31015 13.9053 8.77266 14.9898 8.77266 14.9898H9.45133C9.46588 14.4157 10.6727 13.853 11.7375 13.4791C13.204 12.9642 14.7206 12.4316 14.6869 11.107C14.6583 9.99525 13.5011 9.42757 12.3834 9.00499ZM9.68832 7.26601C10.6922 7.76046 11.3513 8.12891 11.3627 8.72297C11.3714 9.17921 10.4075 9.58132 9.45133 9.90564V7.14865C9.53048 7.18823 9.60962 7.22735 9.68832 7.26601ZM6.38275 12.5689C6.39185 12.0899 7.42032 11.6765 8.40421 11.3471V13.7743C7.40576 13.445 6.37365 13.0347 6.38275 12.5689ZM11.3905 12.4921C10.7009 12.734 10.0004 12.9806 9.45087 13.3113V11.0092C10.367 10.7121 11.2554 10.3896 11.8153 9.91156C12.6596 10.2213 13.6266 10.6257 13.6398 11.1347C13.6544 11.6969 12.4517 12.1191 11.3905 12.4921Z" fill="white"/>
</svg>
