<svg width="16" height="17" viewBox="0 0 16 17" fill="none" xmlns="http://www.w3.org/2000/svg">
<path d="M8.33976 11.2667L13.1931 6.42008C13.2481 6.32711 13.2706 6.21848 13.2571 6.11131C13.2436 6.00413 13.1948 5.90451 13.1184 5.82812C13.042 5.75174 12.9424 5.70294 12.8352 5.68941C12.728 5.67588 12.6194 5.6984 12.5264 5.75341L7.99976 10.2401L3.49309 5.73341C3.40211 5.65002 3.28318 5.60376 3.15976 5.60376C3.03634 5.60376 2.91741 5.65002 2.82643 5.73341C2.74304 5.82439 2.69678 5.94333 2.69678 6.06674C2.69678 6.19016 2.74304 6.30909 2.82643 6.40008L7.67976 11.2467C7.76924 11.3331 7.88874 11.3814 8.01309 11.3814C8.13745 11.3814 8.25695 11.3331 8.34643 11.2467L8.33976 11.2667Z" fill="#ECEBED"/>
</svg>
