<svg width="24" height="24" viewBox="0 0 24 24" fill="none" xmlns="http://www.w3.org/2000/svg">
	<path d="M11.4901 7.85012L4.21014 15.1201C4.12763 15.2596 4.09386 15.4225 4.11415 15.5833C4.13444 15.744 4.20764 15.8935 4.32221 16.0081C4.43679 16.1226 4.58623 16.1958 4.74699 16.2161C4.90775 16.2364 5.07069 16.2026 5.21014 16.1201L12.0001 9.39012L18.7601 16.1501C18.8966 16.2752 19.075 16.3446 19.2601 16.3446C19.4453 16.3446 19.6237 16.2752 19.7601 16.1501C19.8852 16.0136 19.9546 15.8352 19.9546 15.6501C19.9546 15.465 19.8852 15.2866 19.7601 15.1501L12.5101 7.85012C12.3759 7.72058 12.1967 7.64819 12.0101 7.64819C11.8236 7.64819 11.6444 7.72058 11.5101 7.85012H11.4901Z" fill="#ECEBED" />
</svg>
