<svg width="24" height="24" viewBox="0 0 24 24" fill="none" xmlns="http://www.w3.org/2000/svg">
<path fill-rule="evenodd" clip-rule="evenodd" d="M12.0001 5.12761C8.2044 5.12761 5.12737 8.20464 5.12737 12.0003C5.12737 15.796 8.2044 18.8731 12.0001 18.8731C15.7958 18.8731 18.8728 15.796 18.8728 12.0003C18.8728 8.20464 15.7958 5.12761 12.0001 5.12761ZM3.6001 12.0003C3.6001 7.36115 7.36091 3.60034 12.0001 3.60034C16.6393 3.60034 20.4001 7.36115 20.4001 12.0003C20.4001 16.6395 16.6393 20.4003 12.0001 20.4003C7.36091 20.4003 3.6001 16.6395 3.6001 12.0003Z" fill="#ECEBED"/>
<path fill-rule="evenodd" clip-rule="evenodd" d="M12.0001 6.65489C12.4218 6.65489 12.7637 6.99678 12.7637 7.41852V11.5284L15.3962 12.8446C15.7734 13.0332 15.9263 13.4919 15.7377 13.8691C15.5491 14.2463 15.0904 14.3992 14.7131 14.2106L11.6586 12.6834C11.3999 12.554 11.2365 12.2896 11.2365 12.0003V7.41852C11.2365 6.99678 11.5784 6.65489 12.0001 6.65489Z" fill="#ECEBED"/>
</svg>
