<svg width="24" height="24" viewBox="0 0 24 24" fill="none" xmlns="http://www.w3.org/2000/svg">
<path d="M4.75 20C4.60182 19.9972 4.4577 19.9511 4.33539 19.8674C4.21308 19.7837 4.1179 19.666 4.06158 19.529C4.00526 19.3919 3.99025 19.2413 4.01839 19.0958C4.04654 18.9503 4.11662 18.8162 4.22 18.71L10.93 12L4.22 5.3C4.09902 5.16152 4.03236 4.98388 4.03236 4.8C4.03236 4.61612 4.09902 4.43848 4.22 4.3C4.36232 4.15894 4.55461 4.07979 4.755 4.07979C4.95539 4.07979 5.14767 4.15894 5.29 4.3L12 10.94L18.7 4.23C18.8456 4.08353 19.0434 4.00082 19.25 4C19.3508 4.00063 19.4504 4.02128 19.5431 4.06077C19.6358 4.10025 19.7197 4.15778 19.79 4.23C19.9267 4.37636 20.0019 4.56971 20 4.77C19.9961 4.97006 19.9134 5.1605 19.77 5.3L13.06 12L19.77 18.71C19.9051 18.8514 19.9805 19.0394 19.9805 19.235C19.9805 19.4306 19.9051 19.6186 19.77 19.76C19.7004 19.8331 19.6166 19.8913 19.5238 19.9308C19.4309 19.9704 19.3309 19.9905 19.23 19.99C19.0328 19.9914 18.8427 19.9161 18.7 19.78L12 13.07L5.29 19.78C5.2189 19.8504 5.1346 19.9061 5.04193 19.9438C4.94927 19.9816 4.85006 20.0007 4.75 20Z" fill="#ECEBED"/>
</svg>
