<svg width="24" height="25" viewBox="0 0 24 25" fill="none" xmlns="http://www.w3.org/2000/svg">
    <path d="M18.8 21.5H11.15C10.5761 21.4844 10.0307 21.2461 9.62942 20.8355C9.22812 20.4248 9.00239 19.8741 9 19.3V11.65C9.01515 11.0846 9.24654 10.5465 9.6465 10.1465C10.0465 9.74654 10.5846 9.51515 11.15 9.5H18.8C19.3827 9.50263 19.9407 9.73526 20.3527 10.1473C20.7647 10.5593 20.9974 11.1173 21 11.7V19.3C20.9974 19.8827 20.7647 20.4407 20.3527 20.8527C19.9407 21.2647 19.3827 21.4974 18.8 21.5ZM11.15 10.5C10.8317 10.5 10.5265 10.6264 10.3015 10.8515C10.0764 11.0765 9.95 11.3817 9.95 11.7V19.3C9.95 19.6183 10.0764 19.9235 10.3015 20.1485C10.5265 20.3736 10.8317 20.5 11.15 20.5H18.8C19.1183 20.5 19.4235 20.3736 19.6485 20.1485C19.8736 19.9235 20 19.6183 20 19.3V11.65C19.9871 11.3405 19.855 11.048 19.6313 10.8336C19.4077 10.6193 19.1098 10.4997 18.8 10.5H11.15Z" fill="#ECEBED"/>
    <path d="M6.05 15.55H5.2C4.61733 15.5474 4.05928 15.3147 3.64727 14.9027C3.23526 14.4907 3.00263 13.9327 3 13.35V5.7C3.00263 5.11733 3.23526 4.55928 3.64727 4.14727C4.05928 3.73526 4.61733 3.50263 5.2 3.5H12.85C13.4327 3.50263 13.9907 3.73526 14.4027 4.14727C14.8147 4.55928 15.0474 5.11733 15.05 5.7V6.55C15.05 6.68261 14.9973 6.80979 14.9036 6.90355C14.8098 6.99732 14.6826 7.05 14.55 7.05C14.4174 7.05 14.2902 6.99732 14.1964 6.90355C14.1027 6.80979 14.05 6.68261 14.05 6.55V5.7C14.05 5.38174 13.9236 5.07652 13.6985 4.85147C13.4735 4.62643 13.1683 4.5 12.85 4.5H5.2C4.88174 4.5 4.57652 4.62643 4.35147 4.85147C4.12643 5.07652 4 5.38174 4 5.7V13.35C4 13.6683 4.12643 13.9735 4.35147 14.1985C4.57652 14.4236 4.88174 14.55 5.2 14.55H6.05C6.18261 14.55 6.30979 14.6027 6.40355 14.6964C6.49732 14.7902 6.55 14.9174 6.55 15.05C6.55 15.1826 6.49732 15.3098 6.40355 15.4036C6.30979 15.4973 6.18261 15.55 6.05 15.55Z" fill="#ECEBED"/>
</svg>
