<svg width="16" height="14" viewBox="0 0 16 14" fill="none" xmlns="http://www.w3.org/2000/svg">
<path d="M14.59 0.91H1.41C1.03857 0.912579 0.68293 1.06059 0.419348 1.32231C0.155765 1.58402 0.00522263 1.93859 0 2.31V11.69C0.00522263 12.0614 0.155765 12.416 0.419348 12.6777C0.68293 12.9394 1.03857 13.0874 1.41 13.09H14.59C14.9614 13.0874 15.3171 12.9394 15.5807 12.6777C15.8442 12.416 15.9948 12.0614 16 11.69V2.31C15.9948 1.93859 15.8442 1.58402 15.5807 1.32231C15.3171 1.06059 14.9614 0.912579 14.59 0.91V0.91ZM14.4 1.84L8 8.21L1.6 1.84H14.4ZM0.94 11.49V2.49L5.45 7L0.94 11.49ZM1.6 12.16L6.12 7.64L7.7 9.21C7.78794 9.29672 7.90649 9.34534 8.03 9.34534C8.15351 9.34534 8.27205 9.29672 8.36 9.21L9.91 7.66L14.4 12.16H1.6ZM15.06 11.49L10.57 7L15.06 2.51V11.49Z" fill="#ECEBED"/>
</svg>
