<svg width="40" height="40" viewBox="0 0 40 40" fill="none" xmlns="http://www.w3.org/2000/svg">
<path fill-rule="evenodd" clip-rule="evenodd" d="M20 4.0835C11.2095 4.0835 4.08337 11.2096 4.08337 20.0002C4.08337 28.7907 11.2095 35.9168 20 35.9168C28.7906 35.9168 35.9167 28.7907 35.9167 20.0002C35.9167 11.2096 28.7906 4.0835 20 4.0835ZM2.58337 20.0002C2.58337 10.3812 10.3811 2.5835 20 2.5835C29.619 2.5835 37.4167 10.3812 37.4167 20.0002C37.4167 29.6191 29.619 37.4168 20 37.4168C10.3811 37.4168 2.58337 29.6191 2.58337 20.0002ZM20.0165 22C19.4642 22 19.0165 21.5523 19.0165 21V14.3333C19.0165 13.781 19.4642 13.3333 20.0165 13.3333C20.5688 13.3333 21.0165 13.781 21.0165 14.3333V21C21.0165 21.5523 20.5688 22 20.0165 22ZM20.0165 27.6665C20.5688 27.6665 21.0165 27.2188 21.0165 26.6665C21.0165 26.1142 20.5688 25.6665 20.0165 25.6665H19.9998C19.4475 25.6665 18.9998 26.1142 18.9998 26.6665C18.9998 27.2188 19.4475 27.6665 19.9998 27.6665H20.0165Z" fill="#F8AF1A"/>
</svg>
