<svg width="24" height="24" viewBox="0 0 24 24" fill="none" xmlns="http://www.w3.org/2000/svg">
<path d="M12 18.6901C6.35 18.6901 3.19 12.5101 3.06 12.2401C3.02061 12.1662 3 12.0838 3 12.0001C3 11.9163 3.02061 11.8339 3.06 11.7601C3.19 11.4901 6.35 5.31006 12 5.31006C17.65 5.31006 20.81 11.4901 20.94 11.7601C20.9794 11.8339 21 11.9163 21 12.0001C21 12.0838 20.9794 12.1662 20.94 12.2401C20.81 12.5101 17.65 18.6901 12 18.6901ZM4.17 12.0001C4.8 13.1101 7.62 17.6001 12 17.6001C16.38 17.6001 19.2 13.1101 19.83 12.0001C19.2 10.8901 16.38 6.40006 12 6.40006C7.62 6.40006 4.8 10.8901 4.17 12.0001Z" fill="#ECEBED"/>
<path d="M11.9999 14.8499C11.4362 14.8499 10.8852 14.6828 10.4165 14.3696C9.94785 14.0564 9.58256 13.6113 9.36685 13.0906C9.15114 12.5698 9.0947 11.9967 9.20467 11.4439C9.31463 10.8911 9.58607 10.3832 9.98465 9.98465C10.3832 9.58607 10.8911 9.31463 11.4439 9.20467C11.9967 9.0947 12.5698 9.15114 13.0906 9.36685C13.6113 9.58256 14.0564 9.94785 14.3696 10.4165C14.6828 10.8852 14.8499 11.4362 14.8499 11.9999C14.8473 12.755 14.5462 13.4783 14.0122 14.0122C13.4783 14.5462 12.755 14.8473 11.9999 14.8499ZM11.9999 10.2399C11.6518 10.2399 11.3115 10.3431 11.0221 10.5365C10.7327 10.7299 10.5071 11.0048 10.3739 11.3264C10.2407 11.648 10.2058 12.0019 10.2737 12.3433C10.3416 12.6847 10.5093 12.9983 10.7554 13.2444C11.0015 13.4906 11.3151 13.6582 11.6565 13.7261C11.998 13.794 12.3518 13.7591 12.6734 13.6259C12.995 13.4927 13.2699 13.2671 13.4633 12.9777C13.6567 12.6883 13.7599 12.348 13.7599 11.9999C13.7599 11.5331 13.5745 11.0855 13.2444 10.7554C12.9143 10.4253 12.4667 10.2399 11.9999 10.2399Z" fill="#ECEBED"/>
</svg>
