<svg width="64" height="64" viewBox="0 0 64 64" fill="none" xmlns="http://www.w3.org/2000/svg">
<path d="M47.0933 16.9333C43.6046 13.4407 39.0126 11.2661 34.1001 10.7802C29.1876 10.2942 24.2585 11.5269 20.1531 14.2683C16.0478 17.0096 13.0201 21.0899 11.5863 25.8136C10.1525 30.5373 10.4012 35.6121 12.2902 40.1729C14.1791 44.7337 17.5912 48.4983 21.945 50.825C26.2988 53.1517 31.3248 53.8965 36.1663 52.9324C41.0077 51.9684 45.365 49.3551 48.4954 45.5381C51.6258 41.721 53.3356 36.9365 53.3333 32C53.3307 26.3496 51.0865 20.931 47.0933 16.9333ZM32 50.3733C28.3725 50.3733 24.8264 49.298 21.8099 47.2832C18.7934 45.2684 16.4418 42.4046 15.0524 39.0538C13.663 35.7029 13.2981 32.0154 14.0039 28.4572C14.7096 24.899 16.4544 21.6299 19.0175 19.063C21.5807 16.4961 24.8472 14.7467 28.4044 14.0358C31.9615 13.3249 35.6496 13.6844 39.0025 15.0689C42.3553 16.4534 45.2225 18.8008 47.2417 21.8144C49.2609 24.828 50.3414 28.3725 50.3466 32C50.3396 36.8661 48.4052 41.5313 44.9669 44.9747C41.5285 48.4181 36.8661 50.3592 32 50.3733Z" fill="#34C889"/>
<path d="M41.2 24.6401C41.0005 24.6376 40.8026 24.6766 40.619 24.7547C40.4354 24.8327 40.27 24.9481 40.1333 25.0934L29.4666 35.7601L24 30.2401C23.86 30.1008 23.6934 29.9913 23.5101 29.9179C23.3269 29.8446 23.1307 29.8091 22.9333 29.8134C22.7396 29.8063 22.5465 29.8407 22.3672 29.9142C22.1878 29.9878 22.0262 30.0989 21.8933 30.2401C21.6132 30.5244 21.4562 30.9076 21.4562 31.3067C21.4562 31.7059 21.6132 32.089 21.8933 32.3734L28.5066 38.9601C28.6382 39.1047 28.7989 39.2198 28.9781 39.298C29.1574 39.3761 29.3511 39.4154 29.5466 39.4134C29.9463 39.4009 30.3269 39.2392 30.6133 38.9601L42.3733 27.2001C42.6534 26.9157 42.8104 26.5326 42.8104 26.1334C42.8104 25.7342 42.6534 25.3511 42.3733 25.0667C42.2235 24.9105 42.0397 24.7908 41.8363 24.7168C41.6329 24.6428 41.4152 24.6166 41.2 24.6401Z" fill="#34C889"/>
</svg>
