<svg width="10" height="10" viewBox="0 0 10 10" fill="none" xmlns="http://www.w3.org/2000/svg">
	<path d="M9.5 10C9.36739 10 9.24021 9.94732 9.14645 9.85355C9.05268 9.75979 9 9.63261 9 9.5C8.99735 7.24647 8.10097 5.086 6.50748 3.49252C4.914 1.89903 2.75353 1.00265 0.5 1C0.367392 1 0.240214 0.947321 0.146446 0.853553C0.052678 0.759785 0 0.632608 0 0.5C0 0.367392 0.052678 0.240215 0.146446 0.146447C0.240214 0.0526785 0.367392 0 0.5 0C3.01874 0.00264713 5.43357 1.00439 7.21459 2.78541C8.99561 4.56643 9.99735 6.98126 10 9.5C10 9.63261 9.94732 9.75979 9.85355 9.85355C9.75979 9.94732 9.63261 10 9.5 10Z" fill="#70697A" />
</svg>
