<svg width="16" height="16" viewBox="0 0 16 16" fill="none" xmlns="http://www.w3.org/2000/svg">
<path d="M15.4102 16C15.2649 15.9965 15.126 15.9395 15.0202 15.84L11.5702 12.38L11.5002 12.44C10.1152 13.5909 8.33994 14.1638 6.54347 14.0395C4.747 13.9153 3.06751 13.1035 1.85412 11.773C0.640731 10.4424 -0.0132152 8.69541 0.0282228 6.89513C0.0696607 5.09486 0.803295 3.37979 2.07662 2.10647C3.34995 0.833141 5.06501 0.0995069 6.86529 0.058069C8.66557 0.016631 10.4126 0.670578 11.7431 1.88397C13.0737 3.09736 13.8855 4.77685 14.0097 6.57332C14.1339 8.36978 13.561 10.145 12.4102 11.53L12.3502 11.6L15.8102 15C15.9097 15.1059 15.9667 15.2447 15.9702 15.39C15.9728 15.4626 15.9609 15.535 15.9349 15.6028C15.909 15.6706 15.8697 15.7326 15.8192 15.7848C15.7688 15.8371 15.7084 15.8787 15.6415 15.9071C15.5747 15.9355 15.5028 15.9501 15.4302 15.95L15.4102 16ZM7.00016 1.09001C5.8324 1.10579 4.69541 1.46661 3.73224 2.12707C2.76907 2.78753 2.02276 3.71812 1.58724 4.80173C1.15171 5.88534 1.04641 7.07356 1.2846 8.21688C1.52279 9.36019 2.09383 10.4075 2.92585 11.227C3.75787 12.0466 4.8137 12.6017 5.96048 12.8226C7.10726 13.0435 8.29376 12.9203 9.37066 12.4684C10.4476 12.0166 11.3668 11.2563 12.0126 10.2832C12.6584 9.31019 13.002 8.16787 13.0002 7.00001C12.9936 6.21956 12.8331 5.44808 12.5278 4.7298C12.2225 4.01152 11.7784 3.36058 11.2209 2.81431C10.6635 2.26803 10.0037 1.83717 9.27944 1.54642C8.55515 1.25567 7.78058 1.11077 7.00016 1.12001V1.09001Z" fill="#ECEBED"/>
</svg>
