<svg width="26" height="26" viewBox="0 0 26 26" fill="none" xmlns="http://www.w3.org/2000/svg">
<path d="M25.0159 1.74947C25.4301 1.74078 25.7587 1.39803 25.75 0.983902C25.7413 0.569781 25.3986 0.241109 24.9845 0.249796L25.0159 1.74947ZM15.9997 11.5009L15.2572 11.607L15.2609 11.6327L15.2664 11.6581L15.9997 11.5009ZM0.681437 18.3211C0.306479 18.4971 0.145198 18.9438 0.321207 19.3187L3.18944 25.429C3.36544 25.804 3.81209 25.9653 4.18705 25.7893C4.56201 25.6132 4.72329 25.1666 4.54728 24.7916L1.99774 19.3603L7.42912 16.8107C7.80408 16.6347 7.96536 16.1881 7.78935 15.8131C7.61334 15.4382 7.1667 15.2769 6.79174 15.4529L0.681437 18.3211ZM25.0002 0.999631C24.9845 0.249796 24.9841 0.249804 24.9836 0.249814C24.9834 0.249818 24.9829 0.249829 24.9825 0.249839C24.9817 0.249857 24.9808 0.24988 24.9797 0.249908C24.9774 0.249963 24.9745 0.250039 24.971 0.25014C24.964 0.250343 24.9545 0.250644 24.9426 0.251085C24.9187 0.251965 24.8851 0.2534 24.8426 0.255697C24.7575 0.260289 24.6363 0.268334 24.4845 0.282306C24.1812 0.310222 23.754 0.361962 23.2479 0.457653C22.2404 0.64815 20.8953 1.01736 19.5872 1.73766C18.2749 2.46025 16.982 3.54668 16.123 5.17211C15.2619 6.80175 14.8715 8.90803 15.2572 11.607L16.7422 11.3948C16.3932 8.95299 16.7606 7.17619 17.4493 5.87293C18.1402 4.56545 19.1892 3.66917 20.3107 3.05164C21.4363 2.43182 22.6169 2.10352 23.5266 1.93154C23.979 1.84599 24.3584 1.80025 24.6219 1.77599C24.7536 1.76388 24.8558 1.75716 24.9234 1.75352C24.9572 1.7517 24.9822 1.75064 24.9979 1.75006C25.0057 1.74978 25.0112 1.74961 25.0142 1.74952C25.0157 1.74947 25.0166 1.74945 25.0169 1.74944C25.0171 1.74944 25.0171 1.74944 25.0169 1.74945C25.0168 1.74945 25.0166 1.74945 25.0165 1.74945C25.0162 1.74946 25.0159 1.74947 25.0002 0.999631ZM15.2664 11.6581C15.9895 15.0319 15.4055 16.9582 14.3729 18.0673C13.3109 19.2079 11.591 19.6901 9.60232 19.7503C7.63428 19.8099 5.55089 19.4509 3.93944 19.0673C3.13811 18.8765 2.4629 18.6819 1.98927 18.5354C1.75261 18.4623 1.56673 18.4012 1.44109 18.3589C1.37827 18.3377 1.33056 18.3212 1.29911 18.3102C1.28339 18.3047 1.27174 18.3006 1.26432 18.298C1.2606 18.2967 1.25795 18.2957 1.25636 18.2952C1.25557 18.2949 1.25505 18.2947 1.25479 18.2946C1.25467 18.2945 1.25468 18.2945 1.25462 18.2945C1.2547 18.2946 1.25485 18.2946 1.00013 19C0.745408 19.7054 0.745696 19.7056 0.746052 19.7057C0.746263 19.7058 0.746688 19.7059 0.747109 19.7061C0.74795 19.7064 0.749065 19.7068 0.750452 19.7073C0.753225 19.7083 0.757085 19.7096 0.762011 19.7114C0.771864 19.7149 0.785988 19.7199 0.804234 19.7263C0.840723 19.739 0.893711 19.7573 0.962003 19.7803C1.09856 19.8264 1.29647 19.8913 1.54614 19.9685C2.04515 20.1228 2.75274 20.3266 3.59202 20.5265C5.26178 20.924 7.49085 21.315 9.64773 21.2497C11.784 21.1849 14.0015 20.6673 15.4707 19.0895C16.9692 17.4801 17.5101 14.9693 16.733 11.3438L15.2664 11.6581Z" fill="#ECEBED"/>
</svg>
