<svg width="16" height="17" viewBox="0 0 16 17" fill="none" xmlns="http://www.w3.org/2000/svg">
<path d="M6.66663 8.80004C6.90634 9.09586 7.21217 9.34063 7.56337 9.51775C7.91458 9.69487 8.30294 9.8002 8.70212 9.82659C9.1013 9.85298 9.50195 9.79981 9.87692 9.6707C10.2519 9.54158 10.5924 9.33954 10.8753 9.07827L12.5499 7.53252C13.0582 7.04663 13.3395 6.39586 13.3332 5.72037C13.3268 5.04489 13.0333 4.39873 12.5159 3.92107C11.9984 3.44341 11.2984 3.17247 10.5666 3.1666C9.83487 3.16073 9.12988 3.4204 8.60351 3.88969L7.64344 4.77077" stroke="#ECEBED" stroke-linecap="round" stroke-linejoin="round"/>
<path d="M9.33329 8.19964C9.09358 7.90382 8.78775 7.65905 8.43655 7.48192C8.08534 7.3048 7.69698 7.19948 7.2978 7.17309C6.89862 7.1467 6.49796 7.19986 6.123 7.32898C5.74804 7.45809 5.40754 7.66013 5.12461 7.9214L3.45007 9.46716C2.94168 9.95304 2.66037 10.6038 2.66673 11.2793C2.67309 11.9548 2.96661 12.6009 3.48406 13.0786C4.00152 13.5563 4.70151 13.8272 5.43328 13.8331C6.16505 13.8389 6.87003 13.5793 7.3964 13.11L8.35089 12.2289" stroke="#ECEBED" stroke-linecap="round" stroke-linejoin="round"/>
</svg>
