<svg width="16" height="17" viewBox="0 0 16 17" fill="none" xmlns="http://www.w3.org/2000/svg">
<path d="M8.00004 14.5C8.00004 14.5 3.33483 11.8 3.33483 7.42C3.31927 6.77963 3.42844 6.14253 3.65591 5.54625C3.88338 4.94996 4.22455 4.40655 4.65931 3.94805C5.09408 3.48954 5.61364 3.1252 6.18739 2.87651C6.76113 2.62782 7.37746 2.4998 8.00004 2.5C8.62262 2.4998 9.23895 2.62782 9.8127 2.87651C10.3864 3.1252 10.906 3.48954 11.3408 3.94805C11.7755 4.40655 12.1167 4.94996 12.3442 5.54625C12.5716 6.14253 12.6808 6.77963 12.6652 7.42C12.6652 11.8 8.00004 14.5 8.00004 14.5Z" stroke="#ECEBED" stroke-linecap="round" stroke-linejoin="round"/>
<path d="M7.99996 8.50016C8.73634 8.50016 9.33329 7.90321 9.33329 7.16683C9.33329 6.43045 8.73634 5.8335 7.99996 5.8335C7.26358 5.8335 6.66663 6.43045 6.66663 7.16683C6.66663 7.90321 7.26358 8.50016 7.99996 8.50016Z" stroke="#ECEBED" stroke-linecap="round" stroke-linejoin="round"/>
</svg>
