<svg width="24" height="24" viewBox="0 0 24 24" fill="none" xmlns="http://www.w3.org/2000/svg">
<path d="M3.75 7.25H17.25C17.4489 7.25 17.6397 7.17098 17.7803 7.03033C17.921 6.88968 18 6.69891 18 6.5C18 6.30109 17.921 6.11032 17.7803 5.96967C17.6397 5.82902 17.4489 5.75 17.25 5.75H3.75C3.55109 5.75 3.36032 5.82902 3.21967 5.96967C3.07902 6.11032 3 6.30109 3 6.5C3 6.69891 3.07902 6.88968 3.21967 7.03033C3.36032 7.17098 3.55109 7.25 3.75 7.25Z" fill="#ECEBED"/>
<path d="M3.75 18.25H20.25C20.4489 18.25 20.6397 18.171 20.7803 18.0303C20.921 17.8897 21 17.6989 21 17.5C21 17.3011 20.921 17.1103 20.7803 16.9697C20.6397 16.829 20.4489 16.75 20.25 16.75H3.75C3.55109 16.75 3.36032 16.829 3.21967 16.9697C3.07902 17.1103 3 17.3011 3 17.5C3 17.6989 3.07902 17.8897 3.21967 18.0303C3.36032 18.171 3.55109 18.25 3.75 18.25Z" fill="#ECEBED"/>
<path d="M3.75 12.75H15.25C15.4489 12.75 15.6397 12.671 15.7803 12.5303C15.921 12.3897 16 12.1989 16 12C16 11.8011 15.921 11.6103 15.7803 11.4697C15.6397 11.329 15.4489 11.25 15.25 11.25H3.75C3.55109 11.25 3.36032 11.329 3.21967 11.4697C3.07902 11.6103 3 11.8011 3 12C3 12.1989 3.07902 12.3897 3.21967 12.5303C3.36032 12.671 3.55109 12.75 3.75 12.75Z" fill="#ECEBED"/>
</svg>
