<svg width="24" height="25" viewBox="0 0 24 25" fill="none" xmlns="http://www.w3.org/2000/svg">
<path d="M16.15 11.99L8.87999 4.71C8.8233 4.6142 8.74546 4.53264 8.65241 4.47154C8.55936 4.41044 8.45358 4.37143 8.34314 4.35749C8.2327 4.34355 8.12054 4.35505 8.01523 4.39112C7.90992 4.42718 7.81425 4.48685 7.73554 4.56556C7.65683 4.64427 7.59716 4.73994 7.5611 4.84525C7.52504 4.95056 7.51354 5.06272 7.52747 5.17316C7.54141 5.28359 7.58042 5.38938 7.64152 5.48243C7.70262 5.57548 7.78419 5.65332 7.87999 5.71L14.61 12.5L7.84999 19.26C7.7249 19.3965 7.65551 19.5749 7.65551 19.76C7.65551 19.9451 7.7249 20.1235 7.84999 20.26C7.98646 20.3851 8.16486 20.4545 8.34999 20.4545C8.53511 20.4545 8.71351 20.3851 8.84999 20.26L16.12 12.98C16.2495 12.8458 16.3219 12.6665 16.3219 12.48C16.3219 12.2935 16.2495 12.1142 16.12 11.98L16.15 11.99Z" fill="#ECEBED"/>
</svg>
