<svg width="16" height="17" viewBox="0 0 16 17" fill="none" xmlns="http://www.w3.org/2000/svg">
<path d="M13.333 11.1526V12.7583C13.3336 12.9074 13.303 13.0549 13.2431 13.1915C13.1833 13.3281 13.0955 13.4507 12.9855 13.5515C12.8754 13.6523 12.7455 13.729 12.604 13.7767C12.4625 13.8245 12.3126 13.8422 12.1638 13.8288C10.5135 13.6499 8.92819 13.087 7.53537 12.1856C6.23954 11.3638 5.1409 10.2673 4.31747 8.97407C3.41108 7.5777 2.84702 5.98788 2.67098 4.33341C2.65758 4.1854 2.6752 4.03622 2.72273 3.89537C2.77027 3.75453 2.84666 3.6251 2.94706 3.51534C3.04745 3.40558 3.16965 3.31788 3.30587 3.25783C3.44208 3.19778 3.58934 3.1667 3.73825 3.16656H5.3472C5.60748 3.164 5.85981 3.25599 6.05716 3.42537C6.25451 3.59475 6.38341 3.82998 6.41984 4.08719C6.48775 4.60107 6.61369 5.10564 6.79526 5.59126C6.86742 5.78284 6.88303 5.99105 6.84026 6.19121C6.79748 6.39138 6.69811 6.57512 6.55391 6.72065L5.87279 7.40042C6.63627 8.74045 7.748 9.84998 9.09069 10.6119L9.77182 9.93217C9.91764 9.78826 10.1017 9.68909 10.3023 9.6464C10.5029 9.60371 10.7115 9.61929 10.9034 9.69131C11.39 9.87252 11.8956 9.99821 12.4105 10.066C12.671 10.1027 12.909 10.2336 13.079 10.434C13.2491 10.6343 13.3395 10.8901 13.333 11.1526Z" stroke="#ECEBED" stroke-linecap="round" stroke-linejoin="round"/>
</svg>
