<svg width="24" height="24" viewBox="0 0 24 24" fill="none" xmlns="http://www.w3.org/2000/svg">
<path d="M19.27 11.27H12.73V4.73C12.73 4.53639 12.6531 4.35071 12.5162 4.21381C12.3793 4.07691 12.1936 4 12 4C11.8064 4 11.6207 4.07691 11.4838 4.21381C11.3469 4.35071 11.27 4.53639 11.27 4.73V11.27H4.73C4.53639 11.27 4.35071 11.3469 4.21381 11.4838C4.07691 11.6207 4 11.8064 4 12C4 12.1936 4.07691 12.3793 4.21381 12.5162C4.35071 12.6531 4.53639 12.73 4.73 12.73H11.27V19.27C11.27 19.4636 11.3469 19.6493 11.4838 19.7862C11.6207 19.9231 11.8064 20 12 20C12.1936 20 12.3793 19.9231 12.5162 19.7862C12.6531 19.6493 12.73 19.4636 12.73 19.27V12.73H19.27C19.4636 12.73 19.6493 12.6531 19.7862 12.5162C19.9231 12.3793 20 12.1936 20 12C20 11.8064 19.9231 11.6207 19.7862 11.4838C19.6493 11.3469 19.4636 11.27 19.27 11.27Z" fill="#ECEBED"/>
</svg>
