<svg width="24" height="24" viewBox="0 0 24 24" fill="none" xmlns="http://www.w3.org/2000/svg">
<path d="M7.85036 12.5104L15.1204 19.7904C15.2598 19.8729 15.4228 19.9067 15.5835 19.8864C15.7443 19.8661 15.8937 19.7929 16.0083 19.6783C16.1229 19.5637 16.1961 19.4143 16.2164 19.2535C16.2367 19.0928 16.2029 18.9298 16.1204 18.7904L9.39036 12.0004L16.1504 5.24037C16.2754 5.1039 16.3448 4.9255 16.3448 4.74037C16.3448 4.55525 16.2754 4.37684 16.1504 4.24037C16.0139 4.11529 15.8355 4.0459 15.6504 4.0459C15.4652 4.0459 15.2868 4.11529 15.1504 4.24037L7.85036 11.4904C7.72083 11.6246 7.64844 11.8038 7.64844 11.9904C7.64844 12.1769 7.72083 12.3562 7.85036 12.4904V12.5104Z" fill="#ECEBED"/>
</svg>
