<svg width="24" height="24" viewBox="0 0 24 24" fill="none" xmlns="http://www.w3.org/2000/svg">
<path d="M19.41 20C19.2647 19.9965 19.1259 19.9395 19.02 19.84L15.57 16.38L15.5 16.44C14.115 17.5909 12.3398 18.1638 10.5433 18.0395C8.74685 17.9153 7.06736 17.1035 5.85397 15.773C4.64058 14.4424 3.98663 12.6954 4.02807 10.8951C4.06951 9.09486 4.80314 7.37979 6.07647 6.10647C7.3498 4.83314 9.06486 4.09951 10.8651 4.05807C12.6654 4.01663 14.4124 4.67058 15.743 5.88397C17.0735 7.09736 17.8853 8.77685 18.0095 10.5733C18.1338 12.3698 17.5609 14.145 16.41 15.53L16.35 15.6L19.81 19C19.9095 19.1059 19.9665 19.2447 19.97 19.39C19.9727 19.4626 19.9607 19.535 19.9348 19.6028C19.9089 19.6706 19.8695 19.7326 19.8191 19.7848C19.7687 19.8371 19.7082 19.8787 19.6414 19.9071C19.5745 19.9355 19.5026 19.9501 19.43 19.95L19.41 20ZM11 5.09001C9.83225 5.10579 8.69525 5.46661 7.73208 6.12707C6.76892 6.78753 6.02261 7.71812 5.58708 8.80173C5.15155 9.88534 5.04626 11.0736 5.28445 12.2169C5.52264 13.3602 6.09367 14.4075 6.92569 15.227C7.75771 16.0466 8.81354 16.6017 9.96033 16.8226C11.1071 17.0435 12.2936 16.9203 13.3705 16.4684C14.4474 16.0166 15.3666 15.2563 16.0124 14.2832C16.6583 13.3102 17.0019 12.1679 17 11C16.9935 10.2196 16.833 9.44808 16.5276 8.7298C16.2223 8.01152 15.7782 7.36058 15.2208 6.81431C14.6634 6.26803 14.0036 5.83717 13.2793 5.54642C12.555 5.25567 11.7804 5.11077 11 5.12001V5.09001Z" fill="#ECEBED"/>
</svg>
