<svg width="16" height="18" viewBox="0 0 16 18" fill="none" xmlns="http://www.w3.org/2000/svg">
<path fill-rule="evenodd" clip-rule="evenodd" d="M3.83001 18H12.17C12.7474 17.9921 13.2982 17.7565 13.7027 17.3445C14.1073 16.9325 14.3327 16.3774 14.33 15.8V4.4H15.5C15.6326 4.4 15.7598 4.34732 15.8536 4.25355C15.9473 4.15979 16 4.03261 16 3.9C16 3.76739 15.9473 3.64022 15.8536 3.54645C15.7598 3.45268 15.6326 3.4 15.5 3.4H13.8312L13.83 3.4L13.8288 3.4H11.83V2.2C11.8327 1.62261 11.6073 1.06751 11.2027 0.655503C10.7982 0.243491 10.2474 0.00790331 9.67001 0H6.33001C5.75266 0.00790331 5.2018 0.243491 4.79728 0.655503C4.39276 1.06751 4.16732 1.62261 4.17001 2.2V3.4H2.1712L2.17001 3.4L2.16881 3.4H0.5C0.367392 3.4 0.240215 3.45268 0.146447 3.54645C0.0526785 3.64022 0 3.76739 0 3.9C0 4.03261 0.0526785 4.15979 0.146447 4.25355C0.240215 4.34732 0.367392 4.4 0.5 4.4H1.67001V15.8C1.66732 16.3774 1.89276 16.9325 2.29728 17.3445C2.7018 17.7565 3.25266 17.9921 3.83001 18ZM2.67001 4.4V15.8C2.66736 15.955 2.69526 16.1089 2.75213 16.2531C2.809 16.3973 2.89371 16.5289 3.00143 16.6403C3.10915 16.7517 3.23777 16.8408 3.37994 16.9026C3.5221 16.9643 3.67504 16.9974 3.83001 17H12.17C12.325 16.9974 12.4779 16.9643 12.6201 16.9026C12.7622 16.8408 12.8909 16.7517 12.9986 16.6403C13.1063 16.5289 13.191 16.3973 13.2479 16.2531C13.3047 16.1089 13.3327 15.955 13.33 15.8V4.4H2.67001ZM5.17001 3.4V2.2C5.16736 2.04503 5.19526 1.89107 5.25213 1.74689C5.309 1.60271 5.39371 1.47114 5.50143 1.35971C5.60915 1.24827 5.73777 1.15915 5.87994 1.09743C6.0221 1.03571 6.17504 1.0026 6.33001 1H9.67001C9.82497 1.0026 9.97791 1.03571 10.1201 1.09743C10.2622 1.15915 10.3909 1.24827 10.4986 1.35971C10.6063 1.47114 10.691 1.60271 10.7479 1.74689C10.8047 1.89107 10.8327 2.04503 10.83 2.2V3.4H5.17001ZM6.33002 13.75C6.19741 13.75 6.07023 13.6973 5.97646 13.6036C5.8827 13.5098 5.83002 13.3826 5.83002 13.25V8.15C5.83002 8.01739 5.8827 7.89022 5.97646 7.79645C6.07023 7.70268 6.19741 7.65 6.33002 7.65C6.46263 7.65 6.5898 7.70268 6.68357 7.79645C6.77734 7.89022 6.83002 8.01739 6.83002 8.15V13.25C6.83002 13.3826 6.77734 13.5098 6.68357 13.6036C6.5898 13.6973 6.46263 13.75 6.33002 13.75ZM9.31643 13.6036C9.4102 13.6973 9.53737 13.75 9.66998 13.75C9.80259 13.75 9.92977 13.6973 10.0235 13.6036C10.1173 13.5098 10.17 13.3826 10.17 13.25V8.15C10.17 8.01739 10.1173 7.89022 10.0235 7.79645C9.92977 7.70268 9.80259 7.65 9.66998 7.65C9.53737 7.65 9.4102 7.70268 9.31643 7.79645C9.22266 7.89022 9.16998 8.01739 9.16998 8.15V13.25C9.16998 13.3826 9.22266 13.5098 9.31643 13.6036Z" fill="#FF6846"/>
</svg>
