<svg width="226" height="64" viewBox="0 0 226 64" fill="none" xmlns="http://www.w3.org/2000/svg">
    <g clip-path="url(#clip0_957_3535)">
        <path d="M102.595 36.0543C100.604 36.0543 98.9588 35.4999 97.6947 34.3737C96.4134 33.2476 95.7727 31.7402 95.7727 29.8518V17.8106H99.2705V29.5746C99.2705 30.5275 99.5475 31.2725 100.102 31.8095C100.656 32.3466 101.487 32.6238 102.595 32.6238C103.703 32.6238 104.534 32.3466 105.089 31.8095C105.643 31.2725 105.92 30.5275 105.92 29.5746V17.8106H109.435V29.8518C109.435 31.7402 108.794 33.2476 107.513 34.3737C106.249 35.4999 104.604 36.0543 102.595 36.0543ZM122.958 28.7256V17.8106H126.491V35.7078H123.807L116.136 24.7581V35.7078H112.603V17.7933H115.287L122.958 28.7256ZM129.815 35.7078V17.7933H133.348V35.6904H129.815V35.7078V35.7078ZM145.157 36.0543C142.473 36.0543 140.257 35.1533 138.49 33.3688C136.741 31.6016 135.858 29.384 135.858 26.7505C135.858 24.0824 136.741 21.8821 138.49 20.1322C140.257 18.3477 142.49 17.4468 145.157 17.4468C146.767 17.4468 148.274 17.8279 149.642 18.5903C151.01 19.3526 152.083 20.3748 152.845 21.6742L149.797 23.4414C149.347 22.6444 148.724 22.0207 147.91 21.5529C147.096 21.1024 146.178 20.8772 145.157 20.8772C143.425 20.8772 142.005 21.4316 140.932 22.5058C139.876 23.6146 139.339 25.0353 139.339 26.7505C139.339 28.4484 139.858 29.8691 140.932 30.9779C142.005 32.0694 143.408 32.6065 145.157 32.6065C146.178 32.6065 147.096 32.3813 147.927 31.9308C148.759 31.4804 149.382 30.8566 149.815 30.077L152.862 31.8442C152.1 33.1436 151.027 34.1658 149.659 34.9281C148.274 35.6904 146.767 36.0543 145.157 36.0543ZM168.637 35.7078H164.827L161.226 29.4879H158.542V35.7078H155.009V17.7933H162.161C163.806 17.7933 165.226 18.365 166.386 19.5258C167.546 20.6866 168.117 22.09 168.117 23.7186C168.117 24.8274 167.806 25.8496 167.165 26.8025C166.542 27.7554 165.693 28.4657 164.654 28.9335L168.637 35.7078ZM162.178 21.1024H158.542V26.404H162.178C162.836 26.404 163.408 26.1441 163.892 25.6244C164.377 25.1046 164.602 24.4809 164.602 23.7359C164.602 23.0082 164.36 22.3845 163.892 21.8648C163.408 21.3623 162.836 21.1024 162.178 21.1024ZM180.377 17.7933H184.359L178.23 28.7083V35.6904H174.732V28.7083L168.62 17.7933H172.602L176.481 25.2605L180.377 17.7933V17.7933ZM186.074 17.7933H192.74C194.437 17.7933 195.892 18.365 197.086 19.5258C198.264 20.6866 198.853 22.1073 198.853 23.8052C198.853 25.5031 198.264 26.9238 197.086 28.0846C195.892 29.2454 194.437 29.8171 192.74 29.8171H189.606V35.7078H186.074V17.7933V17.7933ZM189.606 26.5253H192.758C193.502 26.5253 194.125 26.2654 194.628 25.7457C195.13 25.2259 195.372 24.5848 195.372 23.8225C195.372 23.0429 195.13 22.3845 194.628 21.8821C194.125 21.3623 193.519 21.1198 192.758 21.1198H189.606V26.5253V26.5253ZM199.493 17.7933H212.653V21.1717H207.822V35.7078H204.29V21.1717H199.476L199.493 17.7933V17.7933Z" fill="white"/>
        <path d="M101.037 46.2934V41.7715H101.833V47.8354H101.175L98.0584 43.3134V47.8354H97.2618V41.7715H97.9198L101.037 46.2934V46.2934Z" fill="url(#paint0_linear_957_3535)"/>
        <path d="M110.006 45.1499V47.0731H112.811V47.8354H109.192V41.7715H112.759V42.5338H109.989V44.4049H112.552V45.1673L110.006 45.1499V45.1499Z" fill="url(#paint1_linear_957_3535)"/>
        <path d="M119.357 41.7715H123.72V42.5338H121.919V47.8354H121.123V42.5338H119.339L119.357 41.7715V41.7715Z" fill="url(#paint2_linear_957_3535)"/>
        <path d="M132.828 47.8354H131.893L130.162 41.7715H131.01L132.395 46.7612L133.867 41.7715H134.681L136.153 46.7612L137.538 41.7715H138.386L136.655 47.8354H135.72L134.283 42.9843L132.828 47.8354V47.8354Z" fill="url(#paint3_linear_957_3535)"/>
        <path d="M144.724 44.8036C144.724 43.92 145.036 43.175 145.625 42.5686C146.231 41.9622 146.975 41.6504 147.858 41.6504C148.741 41.6504 149.486 41.9622 150.092 42.5686C150.698 43.175 151.01 43.92 151.01 44.8036C151.01 45.6699 150.698 46.4149 150.092 47.0386C149.486 47.645 148.741 47.9568 147.858 47.9568C146.975 47.9568 146.231 47.645 145.625 47.0386C145.018 46.4149 144.724 45.6699 144.724 44.8036ZM150.196 44.8036C150.196 44.1279 149.971 43.5735 149.52 43.123C149.088 42.6726 148.534 42.4474 147.858 42.4474C147.2 42.4474 146.646 42.6726 146.196 43.123C145.746 43.5735 145.521 44.1452 145.521 44.8036C145.521 45.462 145.746 46.0164 146.196 46.4842C146.646 46.9346 147.2 47.1599 147.858 47.1599C148.534 47.1599 149.088 46.9346 149.52 46.4842C149.971 46.0337 150.196 45.462 150.196 44.8036Z" fill="url(#paint4_linear_957_3535)"/>
        <path d="M162.507 47.8354H161.624L160.256 45.5138H158.836V47.8354H158.04V41.7715H160.464C160.983 41.7715 161.434 41.9621 161.797 42.3259C162.161 42.6897 162.351 43.1229 162.351 43.6426C162.351 44.0411 162.23 44.3876 162.005 44.7168C161.763 45.046 161.468 45.2712 161.105 45.4098L162.507 47.8354ZM160.447 42.5338H158.819V44.7861H160.447C160.741 44.7861 161.001 44.6822 161.208 44.4569C161.416 44.2317 161.537 43.9718 161.537 43.66C161.537 43.3481 161.434 43.0709 161.208 42.863C161.001 42.6378 160.758 42.5338 160.447 42.5338Z" fill="url(#paint5_linear_957_3535)"/>
        <path d="M171.026 44.7168L173.797 47.8354H172.81L170.195 44.9247V47.8354H169.399V41.7715H170.195V44.5089L172.723 41.7715H173.71L171.026 44.7168Z" fill="url(#paint6_linear_957_3535)"/>
        <path d="M225.882 21.2757C225.882 22.3325 225.501 23.2334 224.757 23.9958C224.012 24.7407 223.112 25.1219 222.038 25.1219C220.965 25.1219 220.082 24.7407 219.32 23.9958C218.575 23.2508 218.194 22.3498 218.194 21.2757C218.194 20.2188 218.575 19.3179 219.32 18.5556C220.064 17.8106 220.965 17.4294 222.038 17.4294C223.112 17.4294 223.995 17.8106 224.757 18.5556C225.519 19.3006 225.882 20.2188 225.882 21.2757ZM222.056 24.7581C223.008 24.7581 223.822 24.4116 224.48 23.7359C225.155 23.0429 225.484 22.2286 225.484 21.2757C225.484 20.3228 225.155 19.5085 224.48 18.8155C223.822 18.1398 223.008 17.7933 222.056 17.7933C221.103 17.7933 220.289 18.1398 219.614 18.8155C218.939 19.5085 218.61 20.3228 218.61 21.2757C218.61 22.2286 218.939 23.0429 219.614 23.7359C220.289 24.4116 221.103 24.7581 222.056 24.7581ZM222.09 23.3547C221.519 23.3547 221.017 23.1468 220.601 22.7483C220.186 22.3325 219.995 21.8474 219.995 21.293C219.995 20.7213 220.203 20.2362 220.601 19.8377C221.017 19.4219 221.501 19.2313 222.09 19.2313C222.454 19.2313 222.8 19.3179 223.112 19.5085C223.424 19.6827 223.682 19.9407 223.856 20.2535L222.835 20.8425C222.679 20.548 222.419 20.4094 222.056 20.4094C221.796 20.4094 221.588 20.496 221.415 20.6693C221.242 20.8425 221.173 21.0504 221.173 21.3103C221.173 21.5702 221.259 21.7781 221.415 21.9514C221.588 22.1246 221.796 22.2112 222.056 22.2112C222.419 22.2112 222.679 22.0553 222.835 21.7608L223.856 22.3672C223.683 22.679 223.424 22.9216 223.112 23.1122C222.8 23.2681 222.454 23.3547 222.09 23.3547Z" fill="white"/>
        <path d="M38.3887 36.3315C48.3727 36.3315 56.4663 32.7944 56.4663 28.4311C56.4663 24.0679 48.3727 20.5308 38.3887 20.5308C28.4048 20.5308 20.3112 24.0679 20.3112 28.4311C20.3112 32.7944 28.4048 36.3315 38.3887 36.3315Z" fill="white"/>
        <path d="M62.925 40.195L70.0764 29.176V40.195H62.925Z" fill="#00EC5B"/>
        <path d="M60.2584 54.6617C60.2584 54.6617 74.5438 39.4673 70.0764 27.7034C70.0764 27.7034 61.4878 38.7396 58.0766 39.8311L60.2584 54.6617Z" fill="url(#paint7_linear_957_3535)"/>
        <path d="M70.0764 27.7034C70.0764 27.7034 60.016 31.5843 58.8905 32.3813C58.8905 32.3813 69.6781 27.3916 68.3102 13.0461C68.3102 13.0461 59.9814 28.9335 52.8127 31.6363C52.8127 31.6363 57.4186 37.5269 57.8169 40.195C57.8169 40.195 67.4271 37.3363 70.0764 27.7034V27.7034Z" fill="url(#paint8_linear_957_3535)"/>
        <path d="M22.1985 33.3515C22.1812 33.3688 14.8567 43.1057 14.6835 43.7294C14.6835 43.7294 12.7269 47.7489 19.0298 48.1647C19.0298 48.1647 22.389 47.9394 31.6355 44.4224C31.6355 44.4224 39.7392 41.8756 34.5099 35.9503C34.5099 35.9503 41.0726 38.064 43.2716 41.1479C43.3928 41.3211 43.4967 41.5117 43.6353 41.6677C44.553 42.8285 47.8083 47.5756 44.2759 53.1717C44.2759 53.189 44.2586 53.189 44.2586 53.2064C44.0162 53.6915 37.3151 66.0791 11.8265 60.0672C11.8265 60.0672 44.8993 71.8311 60.2583 54.6617L59.6176 48.3206C59.6176 48.3206 59.1328 41.1825 57.0722 37.3883C56.8817 37.0244 56.6913 36.6606 56.4662 36.3141C55.3233 34.5123 52.5355 29.176 45.3149 26.0748L42.8214 28.6216L44.0162 25.4857C43.9989 25.4857 38.1462 23.2681 36.38 23.8398L35.7913 26.9237L34.9601 23.7532C34.9428 23.7532 30.9083 23.1122 26.7525 24.3076L28.4495 27.3569C28.4495 27.3569 28.4495 27.3742 28.4321 27.3742C28.207 27.3049 26.0772 26.8371 24.4149 30.4062L8.64038 27.2703L22.1985 33.3515V33.3515Z" fill="white"/>
        <path d="M11.8265 60.0498C11.8265 60.0498 -3.30731 55.1294 0.657964 36.8684C0.657964 36.8684 5.22929 15.281 37.5056 6.53168C37.5056 6.53168 62.6998 -0.641036 68.3101 0.034654C68.3101 0.034654 67.0634 8.85328 41.5575 15.2983L24.744 24.7753C23.4107 25.8148 22.3025 27.8246 22.3025 27.8246L21.4367 29.7997L8.64047 27.2528L22.1986 33.3514L14.6836 43.7293C14.6836 43.7293 13.0213 47.5062 19.0298 48.1646L31.6356 44.4223L33.4018 44.7688L35.7048 51.6816L34.0598 57.8322L22.441 60.0671L14.4066 60.8988L11.8265 60.0498V60.0498Z" fill="url(#paint9_linear_957_3535)"/>
        <path d="M53.0551 31.5496C53.0551 31.5496 60.2757 30.0249 68.3274 13.046C68.3274 13.046 59.0809 20.1321 54.5961 20.6346C54.5961 20.6346 67.7906 15.0558 68.3274 0.017334C68.3274 0.017334 25.1769 19.5604 19.1684 29.3319L24.4323 30.3714C24.4323 30.3714 26.112 26.3346 28.4669 27.3222L26.77 24.2556C26.77 24.2556 29.2807 22.7483 34.9776 23.7012L35.8087 26.8717L36.3974 23.7878C36.3974 23.7878 38.0597 22.9908 44.0336 25.4337L42.8388 28.5696L45.3323 26.0228C45.315 26.0747 51.2196 28.3444 53.0551 31.5496V31.5496Z" fill="url(#paint10_linear_957_3535)"/>
        <path d="M29.0556 33.975L25.1942 36.8683C25.1942 36.8683 23.9995 35.4476 25.5406 34.2522C25.5232 34.2522 27.0643 33.126 29.0556 33.975Z" fill="url(#paint11_linear_957_3535)"/>
        <path d="M11.8266 60.0498C11.8266 60.0498 29.7829 61.4012 33.0556 54.5577C36.3282 47.7141 31.6357 44.4223 31.6357 44.4223C31.6357 44.4223 36.3282 42.915 36.2589 39.5885C36.2589 39.5885 36.4494 38.2371 34.4927 35.9502C34.4927 35.9502 41.5922 37.8387 43.2718 40.6627C43.5315 41.0958 43.8086 41.4943 44.1029 41.8928C45.7306 44.0065 49.9556 51.4738 38.8563 58.3346C25.731 66.4256 11.8266 60.0498 11.8266 60.0498V60.0498Z" fill="url(#paint12_linear_957_3535)"/>
    </g>
    <defs>
        <linearGradient id="paint0_linear_957_3535" x1="99.5475" y1="41.7784" x2="99.5475" y2="47.8423" gradientUnits="userSpaceOnUse">
            <stop stop-color="#00F649"/>
            <stop offset="1" stop-color="#00D579"/>
        </linearGradient>
        <linearGradient id="paint1_linear_957_3535" x1="111.002" y1="41.7784" x2="111.002" y2="47.8423" gradientUnits="userSpaceOnUse">
            <stop stop-color="#00F649"/>
            <stop offset="1" stop-color="#00D579"/>
        </linearGradient>
        <linearGradient id="paint2_linear_957_3535" x1="121.53" y1="41.7784" x2="121.53" y2="47.8423" gradientUnits="userSpaceOnUse">
            <stop stop-color="#00F649"/>
            <stop offset="1" stop-color="#00D579"/>
        </linearGradient>
        <linearGradient id="paint3_linear_957_3535" x1="134.274" y1="41.7784" x2="134.274" y2="47.8423" gradientUnits="userSpaceOnUse">
            <stop stop-color="#00F649"/>
            <stop offset="1" stop-color="#00D579"/>
        </linearGradient>
        <linearGradient id="paint4_linear_957_3535" x1="147.867" y1="41.666" x2="147.867" y2="47.9551" gradientUnits="userSpaceOnUse">
            <stop stop-color="#00F649"/>
            <stop offset="1" stop-color="#00D579"/>
        </linearGradient>
        <linearGradient id="paint5_linear_957_3535" x1="160.273" y1="41.7784" x2="160.273" y2="47.8423" gradientUnits="userSpaceOnUse">
            <stop stop-color="#00F649"/>
            <stop offset="1" stop-color="#00D579"/>
        </linearGradient>
        <linearGradient id="paint6_linear_957_3535" x1="171.598" y1="41.7784" x2="171.598" y2="47.8423" gradientUnits="userSpaceOnUse">
            <stop stop-color="#00F649"/>
            <stop offset="1" stop-color="#00D579"/>
        </linearGradient>
        <linearGradient id="paint7_linear_957_3535" x1="64.5135" y1="54.6674" x2="64.5135" y2="27.7091" gradientUnits="userSpaceOnUse">
            <stop stop-color="#4ECC8D"/>
            <stop offset="1" stop-color="#00D579"/>
        </linearGradient>
        <linearGradient id="paint8_linear_957_3535" x1="70.0807" y1="26.6263" x2="52.817" y2="26.6263" gradientUnits="userSpaceOnUse">
            <stop stop-color="#00F649"/>
            <stop offset="1" stop-color="#00D579"/>
        </linearGradient>
        <linearGradient id="paint9_linear_957_3535" x1="68.3144" y1="30.4499" x2="-2.94979e-05" y2="30.4499" gradientUnits="userSpaceOnUse">
            <stop stop-color="#00F649"/>
            <stop offset="1" stop-color="#00D579"/>
        </linearGradient>
        <linearGradient id="paint10_linear_957_3535" x1="43.7349" y1="0.0230514" x2="43.7349" y2="31.5497" gradientUnits="userSpaceOnUse">
            <stop stop-color="#4ECC8D"/>
            <stop offset="1" stop-color="#00D579"/>
        </linearGradient>
        <linearGradient id="paint11_linear_957_3535" x1="24.757" y1="35.269" x2="29.06" y2="35.269" gradientUnits="userSpaceOnUse">
            <stop stop-color="#00F649"/>
            <stop offset="1" stop-color="#00D579"/>
        </linearGradient>
        <linearGradient id="paint12_linear_957_3535" x1="46.2644" y1="49.1989" x2="11.8309" y2="49.1989" gradientUnits="userSpaceOnUse">
            <stop stop-color="#00F649"/>
            <stop offset="1" stop-color="white"/>
        </linearGradient>
        <clipPath id="clip0_957_3535">
            <rect width="225.882" height="64" fill="white"/>
        </clipPath>
    </defs>
</svg>
