<svg width="80" height="56" viewBox="0 0 80 56" fill="none" xmlns="http://www.w3.org/2000/svg">
<path fill-rule="evenodd" clip-rule="evenodd" d="M70.7821 2.0704C74.1717 2.97648 76.8418 5.64657 77.7479 9.03626C79.3946 15.1801 79.3946 28 79.3946 28C79.3946 28 79.3946 40.8199 77.7479 46.9637C76.8418 50.3534 74.1717 53.0235 70.7821 53.9296C64.6382 55.5763 39.9999 55.5763 39.9999 55.5763C39.9999 55.5763 15.3616 55.5763 9.21778 53.9296C5.82808 53.0235 3.158 50.3534 2.25192 46.9637C0.605225 40.8199 0.605225 28 0.605225 28C0.605225 28 0.605225 15.1801 2.25192 9.03626C3.158 5.64657 5.82808 2.97648 9.21778 2.0704C15.3616 0.423706 39.9999 0.423706 39.9999 0.423706C39.9999 0.423706 64.6382 0.423706 70.7821 2.0704ZM52.5887 28L32.121 39.8184V16.1816L52.5887 28Z" fill="#332C3F"/>
</svg>
